G04 EAGLE Gerber RS-274X export*
G75*
%MOMM*%
%FSLAX34Y34*%
%LPD*%
%INBottom Copper*%
%IPPOS*%
%AMOC8*
5,1,8,0,0,1.08239X$1,22.5*%
G01*
%ADD10C,4.445000*%
%ADD11C,1.960000*%
%ADD12C,1.120000*%
%ADD13R,1.524000X1.524000*%
%ADD14P,1.649562X8X112.500000*%
%ADD15C,1.676400*%
%ADD16C,4.016000*%
%ADD17C,1.422400*%
%ADD18C,1.778000*%
%ADD19C,1.778000*%
%ADD20C,2.540000*%
%ADD21C,0.609600*%
%ADD22C,0.654800*%
%ADD23C,0.254000*%


D10*
X1612900Y596900D03*
X38100Y596900D03*
X1612900Y38100D03*
X38100Y38100D03*
D11*
X164100Y304400D03*
X164100Y254400D03*
X39100Y254400D03*
X39100Y304400D03*
X341900Y304400D03*
X341900Y254400D03*
X216900Y254400D03*
X216900Y304400D03*
X240300Y431400D03*
X240300Y381400D03*
X115300Y381400D03*
X115300Y431400D03*
X191500Y533000D03*
X191500Y483000D03*
X316500Y483000D03*
X316500Y533000D03*
X1334500Y533000D03*
X1334500Y483000D03*
X1459500Y483000D03*
X1459500Y533000D03*
X240300Y177400D03*
X240300Y127400D03*
X115300Y127400D03*
X115300Y177400D03*
D12*
X952500Y527800D03*
X952500Y462800D03*
D13*
X1064520Y79420D03*
D14*
X1039120Y79420D03*
X1064520Y104820D03*
X1039120Y104820D03*
X1064520Y130220D03*
X1039120Y130220D03*
X1064520Y155620D03*
X1039120Y155620D03*
X1064520Y181020D03*
X1039120Y181020D03*
X1064520Y206420D03*
X1039120Y206420D03*
X1064520Y231820D03*
X1039120Y231820D03*
X1064520Y257220D03*
X1039120Y257220D03*
X1064520Y282620D03*
X1039120Y282620D03*
X1064520Y308020D03*
X1039120Y308020D03*
X1064520Y333420D03*
X1039120Y333420D03*
X1064520Y358820D03*
X1039120Y358820D03*
X1064520Y384220D03*
X1039120Y384220D03*
X1064520Y409620D03*
X1039120Y409620D03*
X1064520Y435020D03*
X1039120Y435020D03*
X1064520Y460420D03*
X1039120Y460420D03*
X1064520Y485820D03*
X1039120Y485820D03*
X1064520Y511220D03*
X1039120Y511220D03*
D13*
X810520Y79420D03*
D14*
X785120Y79420D03*
X810520Y104820D03*
X785120Y104820D03*
X810520Y130220D03*
X785120Y130220D03*
X810520Y155620D03*
X785120Y155620D03*
X810520Y181020D03*
X785120Y181020D03*
X810520Y206420D03*
X785120Y206420D03*
X810520Y231820D03*
X785120Y231820D03*
X810520Y257220D03*
X785120Y257220D03*
X810520Y282620D03*
X785120Y282620D03*
X810520Y308020D03*
X785120Y308020D03*
X810520Y333420D03*
X785120Y333420D03*
X810520Y358820D03*
X785120Y358820D03*
X810520Y384220D03*
X785120Y384220D03*
X810520Y409620D03*
X785120Y409620D03*
X810520Y435020D03*
X785120Y435020D03*
X810520Y460420D03*
X785120Y460420D03*
X810520Y485820D03*
X785120Y485820D03*
X810520Y511220D03*
X785120Y511220D03*
D15*
X1231900Y76200D03*
X1231900Y101600D03*
X1231900Y127000D03*
X1231900Y152400D03*
X1231900Y177800D03*
X1231900Y203200D03*
X1231900Y228600D03*
X1231900Y254000D03*
X1231900Y279400D03*
X1231900Y304800D03*
X1231900Y330200D03*
X1231900Y355600D03*
X1231900Y381000D03*
X1231900Y406400D03*
X1231900Y431800D03*
X1231900Y457200D03*
X1231900Y482600D03*
X1231900Y508000D03*
X1231900Y533400D03*
X1231900Y558800D03*
D16*
X1231900Y31750D03*
X1231900Y603250D03*
X400050Y31750D03*
X400050Y603250D03*
D17*
X1283208Y205740D02*
X1297432Y205740D01*
X1297432Y231140D02*
X1283208Y231140D01*
X1283208Y256540D02*
X1297432Y256540D01*
X1297432Y281940D02*
X1283208Y281940D01*
X1283208Y307340D02*
X1297432Y307340D01*
D18*
X1580430Y297180D02*
X1580430Y279400D01*
X1580430Y233680D02*
X1580430Y215900D01*
X1535430Y279400D02*
X1535430Y297180D01*
X1535430Y233680D02*
X1535430Y215900D01*
D19*
X1353820Y281940D03*
X1353820Y256540D03*
X1353820Y231140D03*
D20*
X1522095Y332740D03*
X1388745Y332740D03*
X1388745Y180340D03*
X1522095Y180340D03*
D19*
X1480820Y358140D03*
X1455420Y358140D03*
X1430020Y358140D03*
D21*
X1480820Y609600D03*
D22*
X1526540Y609600D03*
X83820Y594360D03*
D21*
X342900Y492760D03*
X266700Y391160D03*
X190500Y264160D03*
X368300Y264160D03*
X266700Y137160D03*
X1280160Y533400D03*
X713740Y254000D03*
D23*
X713740Y129540D01*
D21*
X713740Y129540D03*
X728980Y411480D03*
D23*
X728980Y104140D01*
D21*
X728980Y104140D03*
X736600Y513080D03*
D23*
X736600Y88900D01*
X746080Y79420D01*
X785120Y79420D01*
X785120Y155620D02*
X751160Y155620D01*
X746760Y160020D01*
X746760Y576580D01*
D21*
X746760Y576580D03*
X721360Y157480D03*
D23*
X721360Y307340D01*
D21*
X721360Y307340D03*
X1112520Y228600D03*
D23*
X1112520Y147320D01*
X1107440Y142240D01*
X1051140Y142240D02*
X1039120Y130220D01*
X1051140Y142240D02*
X1107440Y142240D01*
D21*
X1127760Y279400D03*
D23*
X1127760Y101600D01*
X1117600Y91440D01*
X1051140Y91440D02*
X1039120Y79420D01*
X1051140Y91440D02*
X1117600Y91440D01*
D21*
X1120140Y254000D03*
D23*
X1120140Y124460D01*
X1112520Y116840D01*
X1051140Y116840D02*
X1039120Y104820D01*
X1051140Y116840D02*
X1112520Y116840D01*
X1015320Y485820D02*
X810520Y485820D01*
X1015320Y485820D02*
X1028700Y472440D01*
X1125220Y472440D02*
X1135380Y462280D01*
X1135380Y241300D01*
D21*
X1135380Y241300D03*
D23*
X1125220Y472440D02*
X1028700Y472440D01*
M02*
