G04 EAGLE Gerber RS-274X export*
G75*
%MOMM*%
%FSLAX34Y34*%
%LPD*%
%INTop Copper*%
%IPPOS*%
%AMOC8*
5,1,8,0,0,1.08239X$1,22.5*%
G01*
%ADD10R,0.508000X0.609600*%
%ADD11R,0.800000X0.800000*%
%ADD12C,1.016000*%
%ADD13C,4.445000*%
%ADD14R,0.609600X0.508000*%
%ADD15C,1.960000*%
%ADD16C,1.120000*%
%ADD17R,1.524000X1.524000*%
%ADD18P,1.649562X8X112.500000*%
%ADD19C,1.676400*%
%ADD20C,4.016000*%
%ADD21C,1.422400*%
%ADD22C,1.778000*%
%ADD23C,1.778000*%
%ADD24C,2.540000*%
%ADD25C,0.508000*%
%ADD26C,0.254000*%
%ADD27C,0.609600*%
%ADD28C,0.654800*%

G36*
X1648444Y631308D02*
X1648444Y631308D01*
X1648437Y631427D01*
X1648424Y631465D01*
X1648419Y631506D01*
X1648376Y631616D01*
X1648339Y631729D01*
X1648317Y631764D01*
X1648302Y631801D01*
X1648233Y631897D01*
X1648169Y631998D01*
X1648139Y632026D01*
X1648116Y632059D01*
X1648024Y632135D01*
X1647937Y632216D01*
X1647902Y632236D01*
X1647871Y632261D01*
X1647763Y632312D01*
X1647659Y632370D01*
X1647619Y632380D01*
X1647583Y632397D01*
X1647466Y632419D01*
X1647351Y632449D01*
X1647291Y632453D01*
X1647271Y632457D01*
X1647250Y632455D01*
X1647190Y632459D01*
X3810Y632459D01*
X3692Y632444D01*
X3573Y632437D01*
X3535Y632424D01*
X3494Y632419D01*
X3384Y632376D01*
X3271Y632339D01*
X3236Y632317D01*
X3199Y632302D01*
X3103Y632233D01*
X3002Y632169D01*
X2974Y632139D01*
X2941Y632116D01*
X2865Y632024D01*
X2784Y631937D01*
X2764Y631902D01*
X2739Y631871D01*
X2688Y631763D01*
X2630Y631659D01*
X2620Y631619D01*
X2603Y631583D01*
X2581Y631466D01*
X2551Y631351D01*
X2547Y631291D01*
X2543Y631271D01*
X2545Y631250D01*
X2541Y631190D01*
X2541Y3810D01*
X2556Y3692D01*
X2563Y3573D01*
X2576Y3535D01*
X2581Y3494D01*
X2624Y3384D01*
X2661Y3271D01*
X2683Y3236D01*
X2698Y3199D01*
X2767Y3103D01*
X2831Y3002D01*
X2861Y2974D01*
X2884Y2941D01*
X2976Y2865D01*
X3063Y2784D01*
X3098Y2764D01*
X3129Y2739D01*
X3237Y2688D01*
X3341Y2630D01*
X3381Y2620D01*
X3417Y2603D01*
X3534Y2581D01*
X3649Y2551D01*
X3709Y2547D01*
X3729Y2543D01*
X3750Y2545D01*
X3810Y2541D01*
X1647190Y2541D01*
X1647308Y2556D01*
X1647427Y2563D01*
X1647465Y2576D01*
X1647506Y2581D01*
X1647616Y2624D01*
X1647729Y2661D01*
X1647764Y2683D01*
X1647801Y2698D01*
X1647897Y2767D01*
X1647998Y2831D01*
X1648026Y2861D01*
X1648059Y2884D01*
X1648135Y2976D01*
X1648216Y3063D01*
X1648236Y3098D01*
X1648261Y3129D01*
X1648312Y3237D01*
X1648370Y3341D01*
X1648380Y3381D01*
X1648397Y3417D01*
X1648419Y3534D01*
X1648449Y3649D01*
X1648453Y3709D01*
X1648457Y3729D01*
X1648455Y3750D01*
X1648459Y3810D01*
X1648459Y631190D01*
X1648444Y631308D01*
G37*
%LPC*%
G36*
X32385Y570231D02*
X32385Y570231D01*
X32402Y570233D01*
X32419Y570231D01*
X32559Y570253D01*
X32700Y570271D01*
X32716Y570277D01*
X32733Y570280D01*
X32864Y570335D01*
X32996Y570388D01*
X33010Y570398D01*
X33025Y570404D01*
X33138Y570491D01*
X33253Y570574D01*
X33264Y570588D01*
X33278Y570598D01*
X33365Y570710D01*
X33456Y570819D01*
X33463Y570835D01*
X33474Y570848D01*
X33531Y570979D01*
X33591Y571107D01*
X33595Y571124D01*
X33602Y571140D01*
X33625Y571280D01*
X33651Y571420D01*
X33650Y571437D01*
X33653Y571454D01*
X33640Y571595D01*
X33631Y571737D01*
X33626Y571753D01*
X33625Y571770D01*
X33577Y571904D01*
X33533Y572039D01*
X33524Y572054D01*
X33519Y572070D01*
X33439Y572188D01*
X33363Y572308D01*
X33351Y572320D01*
X33341Y572334D01*
X33235Y572429D01*
X33132Y572526D01*
X33117Y572534D01*
X33104Y572546D01*
X32978Y572611D01*
X32853Y572680D01*
X32837Y572684D01*
X32821Y572692D01*
X32667Y572737D01*
X31233Y573065D01*
X28608Y573983D01*
X26101Y575190D01*
X23746Y576670D01*
X21571Y578405D01*
X19605Y580371D01*
X17870Y582546D01*
X16390Y584901D01*
X15183Y587408D01*
X14265Y590033D01*
X13646Y592745D01*
X13464Y594361D01*
X36830Y594361D01*
X36948Y594376D01*
X37067Y594383D01*
X37105Y594396D01*
X37145Y594401D01*
X37256Y594444D01*
X37369Y594481D01*
X37403Y594503D01*
X37441Y594518D01*
X37537Y594588D01*
X37638Y594651D01*
X37666Y594681D01*
X37698Y594704D01*
X37774Y594796D01*
X37856Y594883D01*
X37875Y594918D01*
X37901Y594949D01*
X37952Y595057D01*
X38009Y595161D01*
X38020Y595201D01*
X38037Y595237D01*
X38059Y595354D01*
X38089Y595469D01*
X38093Y595530D01*
X38097Y595550D01*
X38095Y595570D01*
X38099Y595630D01*
X38099Y596901D01*
X39370Y596901D01*
X39488Y596916D01*
X39607Y596923D01*
X39645Y596936D01*
X39685Y596941D01*
X39796Y596985D01*
X39909Y597021D01*
X39944Y597043D01*
X39981Y597058D01*
X40077Y597128D01*
X40178Y597191D01*
X40206Y597221D01*
X40239Y597245D01*
X40314Y597336D01*
X40396Y597423D01*
X40416Y597458D01*
X40441Y597490D01*
X40492Y597597D01*
X40550Y597702D01*
X40560Y597741D01*
X40577Y597777D01*
X40599Y597894D01*
X40629Y598009D01*
X40633Y598070D01*
X40637Y598090D01*
X40635Y598110D01*
X40639Y598170D01*
X40639Y621536D01*
X42255Y621354D01*
X44967Y620735D01*
X47592Y619817D01*
X50099Y618610D01*
X52454Y617130D01*
X54629Y615395D01*
X56595Y613429D01*
X58330Y611254D01*
X59810Y608899D01*
X61017Y606392D01*
X61935Y603767D01*
X62263Y602333D01*
X62268Y602317D01*
X62271Y602300D01*
X62323Y602168D01*
X62372Y602034D01*
X62381Y602020D01*
X62388Y602004D01*
X62471Y601889D01*
X62552Y601772D01*
X62564Y601761D01*
X62574Y601747D01*
X62684Y601656D01*
X62791Y601563D01*
X62806Y601555D01*
X62819Y601544D01*
X62948Y601484D01*
X63075Y601420D01*
X63092Y601416D01*
X63107Y601409D01*
X63246Y601382D01*
X63386Y601351D01*
X63403Y601352D01*
X63420Y601349D01*
X63561Y601358D01*
X63703Y601363D01*
X63720Y601367D01*
X63737Y601369D01*
X63872Y601412D01*
X64008Y601452D01*
X64023Y601461D01*
X64039Y601467D01*
X64159Y601542D01*
X64282Y601615D01*
X64294Y601628D01*
X64308Y601637D01*
X64406Y601740D01*
X64506Y601841D01*
X64514Y601856D01*
X64526Y601868D01*
X64594Y601992D01*
X64667Y602115D01*
X64671Y602132D01*
X64680Y602147D01*
X64715Y602284D01*
X64754Y602421D01*
X64755Y602438D01*
X64759Y602455D01*
X64769Y602615D01*
X64769Y608331D01*
X78432Y608331D01*
X78570Y608348D01*
X78708Y608361D01*
X78727Y608368D01*
X78747Y608371D01*
X78877Y608422D01*
X79008Y608469D01*
X79024Y608480D01*
X79043Y608488D01*
X79156Y608569D01*
X79271Y608647D01*
X79284Y608663D01*
X79300Y608674D01*
X79389Y608782D01*
X79481Y608886D01*
X79490Y608904D01*
X79503Y608919D01*
X79562Y609045D01*
X79626Y609169D01*
X79630Y609189D01*
X79639Y609207D01*
X79665Y609344D01*
X79695Y609479D01*
X79695Y609500D01*
X79699Y609520D01*
X79690Y609658D01*
X79686Y609797D01*
X79680Y609817D01*
X79679Y609837D01*
X79636Y609969D01*
X79597Y610103D01*
X79587Y610120D01*
X79581Y610139D01*
X79507Y610257D01*
X79436Y610377D01*
X79417Y610398D01*
X79411Y610408D01*
X79396Y610422D01*
X79329Y610498D01*
X79247Y610580D01*
X78912Y611159D01*
X78739Y611806D01*
X78739Y613919D01*
X83820Y613919D01*
X88901Y613919D01*
X88901Y611806D01*
X88728Y611159D01*
X88393Y610580D01*
X88311Y610498D01*
X88225Y610388D01*
X88137Y610281D01*
X88128Y610262D01*
X88116Y610246D01*
X88060Y610118D01*
X88001Y609993D01*
X87997Y609973D01*
X87989Y609954D01*
X87968Y609817D01*
X87941Y609681D01*
X87943Y609660D01*
X87940Y609640D01*
X87953Y609502D01*
X87961Y609363D01*
X87967Y609344D01*
X87969Y609324D01*
X88016Y609193D01*
X88059Y609061D01*
X88070Y609043D01*
X88077Y609024D01*
X88155Y608910D01*
X88229Y608792D01*
X88244Y608778D01*
X88255Y608761D01*
X88360Y608669D01*
X88461Y608574D01*
X88479Y608564D01*
X88494Y608551D01*
X88618Y608488D01*
X88739Y608420D01*
X88759Y608415D01*
X88777Y608406D01*
X88913Y608376D01*
X89047Y608341D01*
X89075Y608339D01*
X89087Y608337D01*
X89108Y608337D01*
X89208Y608331D01*
X376822Y608331D01*
X376851Y608334D01*
X376881Y608332D01*
X377009Y608354D01*
X377137Y608371D01*
X377165Y608381D01*
X377194Y608387D01*
X377313Y608440D01*
X377433Y608488D01*
X377457Y608505D01*
X377484Y608517D01*
X377585Y608598D01*
X377690Y608674D01*
X377709Y608697D01*
X377732Y608716D01*
X377810Y608819D01*
X377893Y608919D01*
X377906Y608946D01*
X377924Y608970D01*
X377995Y609114D01*
X380873Y616064D01*
X387236Y622427D01*
X395550Y625871D01*
X404550Y625871D01*
X412864Y622427D01*
X419227Y616064D01*
X422105Y609114D01*
X422120Y609089D01*
X422129Y609061D01*
X422199Y608951D01*
X422263Y608838D01*
X422284Y608817D01*
X422299Y608792D01*
X422394Y608703D01*
X422484Y608610D01*
X422509Y608594D01*
X422531Y608574D01*
X422645Y608511D01*
X422755Y608443D01*
X422784Y608435D01*
X422809Y608420D01*
X422935Y608388D01*
X423059Y608350D01*
X423089Y608348D01*
X423117Y608341D01*
X423278Y608331D01*
X1208672Y608331D01*
X1208701Y608334D01*
X1208731Y608332D01*
X1208859Y608354D01*
X1208987Y608371D01*
X1209015Y608381D01*
X1209044Y608387D01*
X1209163Y608440D01*
X1209283Y608488D01*
X1209307Y608505D01*
X1209334Y608517D01*
X1209435Y608598D01*
X1209540Y608674D01*
X1209559Y608697D01*
X1209582Y608716D01*
X1209660Y608819D01*
X1209743Y608919D01*
X1209756Y608946D01*
X1209774Y608970D01*
X1209845Y609114D01*
X1212723Y616064D01*
X1219086Y622427D01*
X1227400Y625871D01*
X1236400Y625871D01*
X1244714Y622427D01*
X1251077Y616064D01*
X1253955Y609114D01*
X1253970Y609089D01*
X1253979Y609061D01*
X1254049Y608951D01*
X1254113Y608838D01*
X1254134Y608817D01*
X1254149Y608792D01*
X1254244Y608703D01*
X1254334Y608610D01*
X1254359Y608594D01*
X1254381Y608574D01*
X1254495Y608511D01*
X1254605Y608443D01*
X1254634Y608435D01*
X1254659Y608420D01*
X1254785Y608388D01*
X1254909Y608350D01*
X1254939Y608348D01*
X1254967Y608341D01*
X1255128Y608331D01*
X1473962Y608331D01*
X1474080Y608346D01*
X1474199Y608353D01*
X1474237Y608366D01*
X1474278Y608371D01*
X1474388Y608414D01*
X1474501Y608451D01*
X1474536Y608473D01*
X1474573Y608488D01*
X1474669Y608558D01*
X1474770Y608621D01*
X1474798Y608651D01*
X1474831Y608674D01*
X1474907Y608766D01*
X1474988Y608853D01*
X1475008Y608888D01*
X1475033Y608919D01*
X1475084Y609027D01*
X1475142Y609131D01*
X1475152Y609171D01*
X1475169Y609207D01*
X1475191Y609324D01*
X1475221Y609439D01*
X1475225Y609500D01*
X1475229Y609520D01*
X1475227Y609540D01*
X1475231Y609600D01*
X1475231Y610712D01*
X1476082Y612766D01*
X1477654Y614338D01*
X1479708Y615189D01*
X1481932Y615189D01*
X1483986Y614338D01*
X1485558Y612766D01*
X1486409Y610712D01*
X1486409Y609600D01*
X1486424Y609482D01*
X1486431Y609363D01*
X1486444Y609325D01*
X1486449Y609284D01*
X1486492Y609174D01*
X1486529Y609061D01*
X1486551Y609026D01*
X1486566Y608989D01*
X1486635Y608893D01*
X1486699Y608792D01*
X1486729Y608764D01*
X1486752Y608731D01*
X1486844Y608656D01*
X1486931Y608574D01*
X1486966Y608554D01*
X1486997Y608529D01*
X1487105Y608478D01*
X1487209Y608420D01*
X1487249Y608410D01*
X1487285Y608393D01*
X1487402Y608371D01*
X1487517Y608341D01*
X1487577Y608337D01*
X1487597Y608333D01*
X1487618Y608335D01*
X1487678Y608331D01*
X1519456Y608331D01*
X1519574Y608346D01*
X1519693Y608353D01*
X1519731Y608366D01*
X1519772Y608371D01*
X1519882Y608414D01*
X1519995Y608451D01*
X1520030Y608473D01*
X1520067Y608488D01*
X1520163Y608558D01*
X1520264Y608621D01*
X1520292Y608651D01*
X1520325Y608674D01*
X1520401Y608766D01*
X1520482Y608853D01*
X1520502Y608888D01*
X1520527Y608919D01*
X1520578Y609027D01*
X1520636Y609131D01*
X1520646Y609171D01*
X1520663Y609207D01*
X1520685Y609324D01*
X1520715Y609439D01*
X1520719Y609500D01*
X1520723Y609520D01*
X1520721Y609540D01*
X1520725Y609600D01*
X1520725Y610757D01*
X1521610Y612894D01*
X1523246Y614530D01*
X1525383Y615415D01*
X1527697Y615415D01*
X1529834Y614530D01*
X1531470Y612894D01*
X1532355Y610757D01*
X1532355Y609600D01*
X1532370Y609482D01*
X1532377Y609363D01*
X1532390Y609325D01*
X1532395Y609284D01*
X1532438Y609174D01*
X1532475Y609061D01*
X1532497Y609026D01*
X1532512Y608989D01*
X1532581Y608893D01*
X1532645Y608792D01*
X1532675Y608764D01*
X1532698Y608731D01*
X1532790Y608656D01*
X1532877Y608574D01*
X1532912Y608554D01*
X1532943Y608529D01*
X1533051Y608478D01*
X1533155Y608420D01*
X1533195Y608410D01*
X1533231Y608393D01*
X1533348Y608371D01*
X1533463Y608341D01*
X1533523Y608337D01*
X1533543Y608333D01*
X1533564Y608335D01*
X1533624Y608331D01*
X1586231Y608331D01*
X1586231Y602615D01*
X1586233Y602598D01*
X1586231Y602581D01*
X1586253Y602441D01*
X1586271Y602300D01*
X1586277Y602284D01*
X1586280Y602267D01*
X1586335Y602136D01*
X1586388Y602004D01*
X1586398Y601990D01*
X1586404Y601975D01*
X1586491Y601862D01*
X1586574Y601747D01*
X1586588Y601736D01*
X1586598Y601722D01*
X1586710Y601635D01*
X1586819Y601544D01*
X1586835Y601537D01*
X1586848Y601526D01*
X1586979Y601469D01*
X1587107Y601409D01*
X1587124Y601405D01*
X1587140Y601398D01*
X1587280Y601375D01*
X1587420Y601349D01*
X1587437Y601350D01*
X1587454Y601347D01*
X1587595Y601360D01*
X1587737Y601369D01*
X1587753Y601374D01*
X1587770Y601375D01*
X1587904Y601423D01*
X1588039Y601467D01*
X1588054Y601476D01*
X1588070Y601481D01*
X1588188Y601561D01*
X1588308Y601637D01*
X1588320Y601649D01*
X1588334Y601659D01*
X1588429Y601765D01*
X1588526Y601868D01*
X1588534Y601883D01*
X1588546Y601896D01*
X1588611Y602022D01*
X1588680Y602147D01*
X1588684Y602163D01*
X1588692Y602179D01*
X1588737Y602333D01*
X1589065Y603767D01*
X1589983Y606392D01*
X1591190Y608899D01*
X1592670Y611254D01*
X1594405Y613429D01*
X1596371Y615395D01*
X1598546Y617130D01*
X1600901Y618610D01*
X1603408Y619817D01*
X1606033Y620735D01*
X1608745Y621354D01*
X1610361Y621536D01*
X1610361Y598170D01*
X1610376Y598052D01*
X1610383Y597933D01*
X1610396Y597895D01*
X1610401Y597855D01*
X1610444Y597744D01*
X1610481Y597631D01*
X1610503Y597597D01*
X1610518Y597559D01*
X1610588Y597463D01*
X1610651Y597362D01*
X1610681Y597334D01*
X1610704Y597302D01*
X1610796Y597226D01*
X1610883Y597144D01*
X1610918Y597125D01*
X1610949Y597099D01*
X1611057Y597048D01*
X1611161Y596991D01*
X1611201Y596980D01*
X1611237Y596963D01*
X1611354Y596941D01*
X1611469Y596911D01*
X1611530Y596907D01*
X1611550Y596903D01*
X1611570Y596905D01*
X1611630Y596901D01*
X1612901Y596901D01*
X1612901Y595630D01*
X1612916Y595512D01*
X1612923Y595393D01*
X1612936Y595355D01*
X1612941Y595314D01*
X1612985Y595204D01*
X1613021Y595091D01*
X1613043Y595056D01*
X1613058Y595019D01*
X1613128Y594923D01*
X1613191Y594822D01*
X1613221Y594794D01*
X1613245Y594761D01*
X1613336Y594686D01*
X1613423Y594604D01*
X1613458Y594584D01*
X1613490Y594559D01*
X1613597Y594508D01*
X1613702Y594450D01*
X1613741Y594440D01*
X1613777Y594423D01*
X1613894Y594401D01*
X1614009Y594371D01*
X1614070Y594367D01*
X1614090Y594363D01*
X1614110Y594365D01*
X1614170Y594361D01*
X1637536Y594361D01*
X1637354Y592745D01*
X1636735Y590033D01*
X1635817Y587408D01*
X1634610Y584901D01*
X1633130Y582546D01*
X1631395Y580371D01*
X1629429Y578405D01*
X1627254Y576670D01*
X1624899Y575190D01*
X1622392Y573983D01*
X1619767Y573065D01*
X1618333Y572737D01*
X1618317Y572732D01*
X1618300Y572729D01*
X1618168Y572677D01*
X1618034Y572628D01*
X1618020Y572619D01*
X1618004Y572612D01*
X1617889Y572529D01*
X1617772Y572449D01*
X1617761Y572436D01*
X1617747Y572426D01*
X1617656Y572316D01*
X1617563Y572209D01*
X1617555Y572194D01*
X1617544Y572181D01*
X1617483Y572052D01*
X1617420Y571925D01*
X1617416Y571908D01*
X1617409Y571893D01*
X1617382Y571753D01*
X1617351Y571614D01*
X1617352Y571597D01*
X1617349Y571581D01*
X1617358Y571439D01*
X1617363Y571297D01*
X1617367Y571280D01*
X1617369Y571263D01*
X1617412Y571128D01*
X1617452Y570992D01*
X1617461Y570977D01*
X1617467Y570961D01*
X1617543Y570841D01*
X1617615Y570718D01*
X1617628Y570706D01*
X1617637Y570692D01*
X1617740Y570594D01*
X1617841Y570494D01*
X1617856Y570486D01*
X1617868Y570474D01*
X1617993Y570405D01*
X1618115Y570333D01*
X1618132Y570329D01*
X1618147Y570320D01*
X1618284Y570285D01*
X1618421Y570246D01*
X1618438Y570245D01*
X1618455Y570241D01*
X1618615Y570231D01*
X1624331Y570231D01*
X1624331Y64769D01*
X1618615Y64769D01*
X1618598Y64767D01*
X1618581Y64769D01*
X1618441Y64747D01*
X1618300Y64729D01*
X1618284Y64723D01*
X1618267Y64721D01*
X1618136Y64665D01*
X1618004Y64612D01*
X1617990Y64602D01*
X1617975Y64596D01*
X1617862Y64509D01*
X1617747Y64426D01*
X1617736Y64412D01*
X1617722Y64402D01*
X1617635Y64290D01*
X1617544Y64181D01*
X1617537Y64165D01*
X1617526Y64152D01*
X1617469Y64021D01*
X1617409Y63893D01*
X1617405Y63876D01*
X1617398Y63860D01*
X1617375Y63719D01*
X1617349Y63581D01*
X1617350Y63563D01*
X1617347Y63547D01*
X1617360Y63404D01*
X1617369Y63263D01*
X1617374Y63247D01*
X1617375Y63230D01*
X1617423Y63095D01*
X1617467Y62961D01*
X1617476Y62946D01*
X1617481Y62930D01*
X1617561Y62812D01*
X1617637Y62692D01*
X1617649Y62680D01*
X1617659Y62666D01*
X1617764Y62572D01*
X1617868Y62474D01*
X1617883Y62466D01*
X1617896Y62454D01*
X1618022Y62389D01*
X1618147Y62320D01*
X1618163Y62316D01*
X1618179Y62308D01*
X1618333Y62263D01*
X1619767Y61935D01*
X1622392Y61017D01*
X1624899Y59810D01*
X1627254Y58330D01*
X1629429Y56595D01*
X1631395Y54629D01*
X1633130Y52454D01*
X1634610Y50099D01*
X1635817Y47592D01*
X1636735Y44967D01*
X1637354Y42255D01*
X1637536Y40639D01*
X1614170Y40639D01*
X1614052Y40624D01*
X1613933Y40617D01*
X1613895Y40604D01*
X1613855Y40599D01*
X1613744Y40556D01*
X1613631Y40519D01*
X1613597Y40497D01*
X1613559Y40482D01*
X1613463Y40412D01*
X1613362Y40349D01*
X1613334Y40319D01*
X1613302Y40295D01*
X1613226Y40204D01*
X1613144Y40117D01*
X1613125Y40082D01*
X1613099Y40051D01*
X1613048Y39943D01*
X1612991Y39839D01*
X1612980Y39799D01*
X1612963Y39763D01*
X1612941Y39646D01*
X1612911Y39531D01*
X1612907Y39470D01*
X1612903Y39450D01*
X1612904Y39435D01*
X1612903Y39429D01*
X1612904Y39420D01*
X1612901Y39370D01*
X1612901Y38099D01*
X1611630Y38099D01*
X1611512Y38084D01*
X1611393Y38077D01*
X1611355Y38064D01*
X1611314Y38059D01*
X1611204Y38015D01*
X1611091Y37979D01*
X1611056Y37957D01*
X1611019Y37942D01*
X1610923Y37872D01*
X1610822Y37809D01*
X1610794Y37779D01*
X1610761Y37755D01*
X1610686Y37664D01*
X1610604Y37577D01*
X1610584Y37542D01*
X1610559Y37510D01*
X1610508Y37403D01*
X1610450Y37298D01*
X1610440Y37259D01*
X1610423Y37223D01*
X1610401Y37106D01*
X1610371Y36991D01*
X1610367Y36930D01*
X1610363Y36910D01*
X1610364Y36896D01*
X1610363Y36891D01*
X1610364Y36880D01*
X1610361Y36830D01*
X1610361Y13464D01*
X1608745Y13646D01*
X1606033Y14265D01*
X1603408Y15183D01*
X1600901Y16390D01*
X1598546Y17870D01*
X1596371Y19605D01*
X1594405Y21571D01*
X1592670Y23746D01*
X1591190Y26101D01*
X1589983Y28608D01*
X1589065Y31233D01*
X1588737Y32667D01*
X1588732Y32683D01*
X1588729Y32700D01*
X1588677Y32832D01*
X1588628Y32966D01*
X1588619Y32980D01*
X1588612Y32996D01*
X1588529Y33111D01*
X1588449Y33228D01*
X1588436Y33239D01*
X1588426Y33253D01*
X1588316Y33344D01*
X1588209Y33437D01*
X1588194Y33445D01*
X1588181Y33456D01*
X1588052Y33517D01*
X1587925Y33580D01*
X1587908Y33584D01*
X1587893Y33591D01*
X1587753Y33618D01*
X1587614Y33649D01*
X1587597Y33648D01*
X1587581Y33651D01*
X1587439Y33642D01*
X1587297Y33637D01*
X1587280Y33633D01*
X1587263Y33631D01*
X1587128Y33588D01*
X1586992Y33548D01*
X1586977Y33539D01*
X1586961Y33533D01*
X1586841Y33457D01*
X1586718Y33385D01*
X1586706Y33372D01*
X1586692Y33363D01*
X1586594Y33260D01*
X1586494Y33159D01*
X1586486Y33144D01*
X1586474Y33132D01*
X1586405Y33007D01*
X1586333Y32885D01*
X1586329Y32868D01*
X1586320Y32853D01*
X1586285Y32716D01*
X1586246Y32579D01*
X1586245Y32562D01*
X1586241Y32545D01*
X1586231Y32385D01*
X1586231Y26669D01*
X1255128Y26669D01*
X1255099Y26666D01*
X1255069Y26668D01*
X1254941Y26646D01*
X1254813Y26629D01*
X1254785Y26619D01*
X1254756Y26614D01*
X1254637Y26560D01*
X1254517Y26512D01*
X1254493Y26495D01*
X1254466Y26483D01*
X1254365Y26402D01*
X1254260Y26326D01*
X1254241Y26303D01*
X1254218Y26284D01*
X1254140Y26181D01*
X1254057Y26081D01*
X1254044Y26054D01*
X1254026Y26030D01*
X1253955Y25886D01*
X1251077Y18936D01*
X1244714Y12573D01*
X1236400Y9129D01*
X1227400Y9129D01*
X1219086Y12573D01*
X1212723Y18936D01*
X1209845Y25886D01*
X1209833Y25907D01*
X1209826Y25927D01*
X1209824Y25930D01*
X1209821Y25939D01*
X1209751Y26049D01*
X1209687Y26162D01*
X1209666Y26183D01*
X1209651Y26208D01*
X1209556Y26297D01*
X1209466Y26390D01*
X1209441Y26406D01*
X1209419Y26426D01*
X1209305Y26489D01*
X1209195Y26557D01*
X1209166Y26565D01*
X1209141Y26580D01*
X1209015Y26612D01*
X1208891Y26650D01*
X1208861Y26652D01*
X1208833Y26659D01*
X1208672Y26669D01*
X423278Y26669D01*
X423249Y26666D01*
X423219Y26668D01*
X423091Y26646D01*
X422963Y26629D01*
X422935Y26619D01*
X422906Y26614D01*
X422787Y26560D01*
X422667Y26512D01*
X422643Y26495D01*
X422616Y26483D01*
X422515Y26402D01*
X422410Y26326D01*
X422391Y26303D01*
X422368Y26284D01*
X422290Y26181D01*
X422207Y26081D01*
X422194Y26054D01*
X422176Y26030D01*
X422105Y25886D01*
X419227Y18936D01*
X412864Y12573D01*
X404550Y9129D01*
X395550Y9129D01*
X387236Y12573D01*
X380873Y18936D01*
X377995Y25886D01*
X377983Y25907D01*
X377976Y25927D01*
X377974Y25930D01*
X377971Y25939D01*
X377901Y26049D01*
X377837Y26162D01*
X377816Y26183D01*
X377801Y26208D01*
X377706Y26297D01*
X377616Y26390D01*
X377591Y26406D01*
X377569Y26426D01*
X377455Y26489D01*
X377345Y26557D01*
X377316Y26565D01*
X377291Y26580D01*
X377165Y26612D01*
X377041Y26650D01*
X377011Y26652D01*
X376983Y26659D01*
X376822Y26669D01*
X64769Y26669D01*
X64769Y32385D01*
X64767Y32402D01*
X64769Y32419D01*
X64747Y32559D01*
X64729Y32700D01*
X64723Y32716D01*
X64721Y32733D01*
X64665Y32864D01*
X64612Y32996D01*
X64602Y33010D01*
X64596Y33025D01*
X64509Y33138D01*
X64426Y33253D01*
X64412Y33264D01*
X64402Y33278D01*
X64290Y33365D01*
X64181Y33456D01*
X64165Y33463D01*
X64152Y33474D01*
X64021Y33531D01*
X63893Y33591D01*
X63876Y33595D01*
X63860Y33602D01*
X63719Y33625D01*
X63581Y33651D01*
X63563Y33650D01*
X63547Y33653D01*
X63404Y33640D01*
X63263Y33631D01*
X63247Y33626D01*
X63230Y33625D01*
X63095Y33577D01*
X62961Y33533D01*
X62946Y33524D01*
X62930Y33519D01*
X62812Y33439D01*
X62692Y33363D01*
X62680Y33351D01*
X62666Y33341D01*
X62572Y33235D01*
X62474Y33132D01*
X62466Y33117D01*
X62454Y33104D01*
X62389Y32978D01*
X62320Y32853D01*
X62316Y32837D01*
X62308Y32821D01*
X62263Y32667D01*
X61935Y31233D01*
X61017Y28608D01*
X59810Y26101D01*
X58330Y23746D01*
X56595Y21571D01*
X54629Y19605D01*
X52454Y17870D01*
X50099Y16390D01*
X47592Y15183D01*
X44967Y14265D01*
X42255Y13646D01*
X40639Y13464D01*
X40639Y36830D01*
X40624Y36948D01*
X40617Y37067D01*
X40604Y37105D01*
X40599Y37145D01*
X40556Y37256D01*
X40519Y37369D01*
X40497Y37403D01*
X40482Y37441D01*
X40412Y37537D01*
X40349Y37638D01*
X40319Y37666D01*
X40295Y37698D01*
X40204Y37774D01*
X40117Y37856D01*
X40082Y37875D01*
X40051Y37901D01*
X39943Y37952D01*
X39839Y38009D01*
X39799Y38020D01*
X39763Y38037D01*
X39646Y38059D01*
X39531Y38089D01*
X39470Y38093D01*
X39450Y38097D01*
X39430Y38095D01*
X39370Y38099D01*
X38099Y38099D01*
X38099Y39370D01*
X38084Y39488D01*
X38077Y39607D01*
X38064Y39645D01*
X38059Y39685D01*
X38015Y39796D01*
X37979Y39909D01*
X37957Y39944D01*
X37942Y39981D01*
X37872Y40077D01*
X37809Y40178D01*
X37779Y40206D01*
X37755Y40239D01*
X37664Y40314D01*
X37577Y40396D01*
X37542Y40416D01*
X37510Y40441D01*
X37403Y40492D01*
X37298Y40550D01*
X37259Y40560D01*
X37223Y40577D01*
X37106Y40599D01*
X36991Y40629D01*
X36930Y40633D01*
X36910Y40637D01*
X36890Y40635D01*
X36830Y40639D01*
X13464Y40639D01*
X13646Y42255D01*
X14265Y44967D01*
X15183Y47592D01*
X16390Y50099D01*
X17870Y52454D01*
X19605Y54629D01*
X21571Y56595D01*
X23746Y58330D01*
X26101Y59810D01*
X28608Y61017D01*
X31233Y61935D01*
X32667Y62263D01*
X32683Y62268D01*
X32700Y62271D01*
X32832Y62323D01*
X32966Y62372D01*
X32980Y62381D01*
X32996Y62388D01*
X33111Y62471D01*
X33228Y62552D01*
X33239Y62564D01*
X33253Y62574D01*
X33344Y62684D01*
X33437Y62791D01*
X33445Y62806D01*
X33456Y62819D01*
X33516Y62948D01*
X33580Y63075D01*
X33584Y63092D01*
X33591Y63107D01*
X33618Y63246D01*
X33649Y63386D01*
X33648Y63403D01*
X33651Y63420D01*
X33642Y63561D01*
X33637Y63703D01*
X33633Y63720D01*
X33631Y63737D01*
X33588Y63872D01*
X33547Y64008D01*
X33539Y64023D01*
X33533Y64039D01*
X33457Y64159D01*
X33385Y64282D01*
X33372Y64294D01*
X33363Y64308D01*
X33260Y64406D01*
X33159Y64506D01*
X33144Y64514D01*
X33132Y64526D01*
X33007Y64595D01*
X32885Y64667D01*
X32868Y64671D01*
X32853Y64680D01*
X32716Y64715D01*
X32579Y64754D01*
X32562Y64755D01*
X32545Y64759D01*
X32385Y64769D01*
X26669Y64769D01*
X26669Y570231D01*
X32385Y570231D01*
G37*
%LPD*%
%LPC*%
G36*
X1615439Y599439D02*
X1615439Y599439D01*
X1615439Y621536D01*
X1617055Y621354D01*
X1619767Y620735D01*
X1622392Y619817D01*
X1624899Y618610D01*
X1627254Y617130D01*
X1629429Y615395D01*
X1631395Y613429D01*
X1633130Y611254D01*
X1634610Y608899D01*
X1635817Y606392D01*
X1636735Y603767D01*
X1637354Y601055D01*
X1637536Y599439D01*
X1615439Y599439D01*
G37*
%LPD*%
%LPC*%
G36*
X13464Y599439D02*
X13464Y599439D01*
X13646Y601055D01*
X14265Y603767D01*
X15183Y606392D01*
X16390Y608899D01*
X17870Y611254D01*
X19605Y613429D01*
X21571Y615395D01*
X23746Y617130D01*
X26101Y618610D01*
X28608Y619817D01*
X31233Y620735D01*
X33945Y621354D01*
X35561Y621536D01*
X35561Y599439D01*
X13464Y599439D01*
G37*
%LPD*%
%LPC*%
G36*
X1615439Y35561D02*
X1615439Y35561D01*
X1637536Y35561D01*
X1637354Y33945D01*
X1636735Y31233D01*
X1635817Y28608D01*
X1634610Y26101D01*
X1633130Y23746D01*
X1631395Y21571D01*
X1629429Y19605D01*
X1627254Y17870D01*
X1624899Y16390D01*
X1622392Y15183D01*
X1619767Y14265D01*
X1617055Y13646D01*
X1615439Y13464D01*
X1615439Y35561D01*
G37*
%LPD*%
%LPC*%
G36*
X33945Y13646D02*
X33945Y13646D01*
X31233Y14265D01*
X28608Y15183D01*
X26101Y16390D01*
X23746Y17870D01*
X21571Y19605D01*
X19605Y21571D01*
X17870Y23746D01*
X16390Y26101D01*
X15183Y28608D01*
X14265Y31233D01*
X13646Y33945D01*
X13464Y35561D01*
X35561Y35561D01*
X35561Y13464D01*
X33945Y13646D01*
G37*
%LPD*%
%LPC*%
G36*
X85089Y616457D02*
X85089Y616457D01*
X85089Y620777D01*
X86694Y620777D01*
X87341Y620604D01*
X87920Y620269D01*
X88393Y619796D01*
X88728Y619217D01*
X88901Y618570D01*
X88901Y616457D01*
X85089Y616457D01*
G37*
%LPD*%
%LPC*%
G36*
X78739Y616457D02*
X78739Y616457D01*
X78739Y618570D01*
X78912Y619217D01*
X79247Y619796D01*
X79720Y620269D01*
X80299Y620604D01*
X80946Y620777D01*
X82551Y620777D01*
X82551Y616457D01*
X78739Y616457D01*
G37*
%LPD*%
D10*
X190500Y284988D03*
X190500Y273812D03*
D11*
X1526540Y584320D03*
X1526540Y599320D03*
X1480820Y584320D03*
X1480820Y599320D03*
D12*
X1610360Y88900D03*
X40640Y88900D03*
X40640Y533400D03*
X1610360Y88900D03*
X40640Y88900D03*
X40640Y533400D03*
D13*
X1612900Y596900D03*
X38100Y596900D03*
X1612900Y38100D03*
X38100Y38100D03*
D10*
X83820Y604012D03*
X83820Y615188D03*
X368300Y284988D03*
X368300Y273812D03*
X266700Y411988D03*
X266700Y400812D03*
X342900Y513588D03*
X342900Y502412D03*
D14*
X1300988Y533400D03*
X1289812Y533400D03*
D10*
X266700Y157988D03*
X266700Y146812D03*
D15*
X164100Y304400D03*
X164100Y254400D03*
X39100Y254400D03*
X39100Y304400D03*
X341900Y304400D03*
X341900Y254400D03*
X216900Y254400D03*
X216900Y304400D03*
X240300Y431400D03*
X240300Y381400D03*
X115300Y381400D03*
X115300Y431400D03*
X191500Y533000D03*
X191500Y483000D03*
X316500Y483000D03*
X316500Y533000D03*
X1334500Y533000D03*
X1334500Y483000D03*
X1459500Y483000D03*
X1459500Y533000D03*
X240300Y177400D03*
X240300Y127400D03*
X115300Y127400D03*
X115300Y177400D03*
D16*
X952500Y527800D03*
X952500Y462800D03*
D17*
X1064520Y79420D03*
D18*
X1039120Y79420D03*
X1064520Y104820D03*
X1039120Y104820D03*
X1064520Y130220D03*
X1039120Y130220D03*
X1064520Y155620D03*
X1039120Y155620D03*
X1064520Y181020D03*
X1039120Y181020D03*
X1064520Y206420D03*
X1039120Y206420D03*
X1064520Y231820D03*
X1039120Y231820D03*
X1064520Y257220D03*
X1039120Y257220D03*
X1064520Y282620D03*
X1039120Y282620D03*
X1064520Y308020D03*
X1039120Y308020D03*
X1064520Y333420D03*
X1039120Y333420D03*
X1064520Y358820D03*
X1039120Y358820D03*
X1064520Y384220D03*
X1039120Y384220D03*
X1064520Y409620D03*
X1039120Y409620D03*
X1064520Y435020D03*
X1039120Y435020D03*
X1064520Y460420D03*
X1039120Y460420D03*
X1064520Y485820D03*
X1039120Y485820D03*
X1064520Y511220D03*
X1039120Y511220D03*
D17*
X810520Y79420D03*
D18*
X785120Y79420D03*
X810520Y104820D03*
X785120Y104820D03*
X810520Y130220D03*
X785120Y130220D03*
X810520Y155620D03*
X785120Y155620D03*
X810520Y181020D03*
X785120Y181020D03*
X810520Y206420D03*
X785120Y206420D03*
X810520Y231820D03*
X785120Y231820D03*
X810520Y257220D03*
X785120Y257220D03*
X810520Y282620D03*
X785120Y282620D03*
X810520Y308020D03*
X785120Y308020D03*
X810520Y333420D03*
X785120Y333420D03*
X810520Y358820D03*
X785120Y358820D03*
X810520Y384220D03*
X785120Y384220D03*
X810520Y409620D03*
X785120Y409620D03*
X810520Y435020D03*
X785120Y435020D03*
X810520Y460420D03*
X785120Y460420D03*
X810520Y485820D03*
X785120Y485820D03*
X810520Y511220D03*
X785120Y511220D03*
D19*
X1231900Y76200D03*
X1231900Y101600D03*
X1231900Y127000D03*
X1231900Y152400D03*
X1231900Y177800D03*
X1231900Y203200D03*
X1231900Y228600D03*
X1231900Y254000D03*
X1231900Y279400D03*
X1231900Y304800D03*
X1231900Y330200D03*
X1231900Y355600D03*
X1231900Y381000D03*
X1231900Y406400D03*
X1231900Y431800D03*
X1231900Y457200D03*
X1231900Y482600D03*
X1231900Y508000D03*
X1231900Y533400D03*
X1231900Y558800D03*
D20*
X1231900Y31750D03*
X1231900Y603250D03*
X400050Y31750D03*
X400050Y603250D03*
D21*
X1283208Y205740D02*
X1297432Y205740D01*
X1297432Y231140D02*
X1283208Y231140D01*
X1283208Y256540D02*
X1297432Y256540D01*
X1297432Y281940D02*
X1283208Y281940D01*
X1283208Y307340D02*
X1297432Y307340D01*
D22*
X1580430Y297180D02*
X1580430Y279400D01*
X1580430Y233680D02*
X1580430Y215900D01*
X1535430Y279400D02*
X1535430Y297180D01*
X1535430Y233680D02*
X1535430Y215900D01*
D23*
X1353820Y281940D03*
X1353820Y256540D03*
X1353820Y231140D03*
D24*
X1522095Y332740D03*
X1388745Y332740D03*
X1388745Y180340D03*
X1522095Y180340D03*
D23*
X1480820Y358140D03*
X1455420Y358140D03*
X1430020Y358140D03*
D25*
X937520Y358820D02*
X810520Y231820D01*
X937520Y358820D02*
X1039120Y358820D01*
D26*
X1480820Y599320D02*
X1480820Y609600D01*
D27*
X1480820Y609600D03*
D26*
X1526540Y609600D02*
X1526540Y599320D01*
D28*
X1526540Y609600D03*
D26*
X83820Y604012D02*
X83820Y594360D01*
D28*
X83820Y594360D03*
D26*
X342900Y502412D02*
X342900Y492760D01*
D27*
X342900Y492760D03*
D26*
X266700Y400812D02*
X266700Y391160D01*
D27*
X266700Y391160D03*
D26*
X190500Y273812D02*
X190500Y264160D01*
D27*
X190500Y264160D03*
D26*
X368300Y264160D02*
X368300Y273812D01*
D27*
X368300Y264160D03*
D26*
X266700Y146812D02*
X266700Y137160D01*
D27*
X266700Y137160D03*
D26*
X1280160Y533400D02*
X1289812Y533400D01*
D27*
X1280160Y533400D03*
D26*
X164100Y304400D02*
X39100Y304400D01*
X164100Y304400D02*
X183280Y304400D01*
X190500Y297180D01*
X190500Y284988D01*
X191008Y284480D01*
D27*
X713740Y254000D03*
D26*
X332740Y284480D02*
X191008Y284480D01*
X332740Y284480D02*
X363220Y254000D01*
X713740Y254000D01*
D27*
X713740Y129540D03*
D26*
X784440Y129540D01*
X785120Y130220D01*
X341900Y304400D02*
X216900Y304400D01*
X341900Y304400D02*
X361080Y304400D01*
X368300Y297180D01*
X368300Y284988D01*
X368808Y284480D01*
X783260Y284480D02*
X785120Y282620D01*
X783260Y284480D02*
X368808Y284480D01*
X115700Y431800D02*
X115300Y431400D01*
X239900Y431800D02*
X240300Y431400D01*
X239900Y431800D02*
X115700Y431800D01*
X240300Y431400D02*
X254400Y431400D01*
X266700Y419100D01*
X266700Y411988D01*
X267208Y411480D01*
D27*
X728980Y411480D03*
D26*
X267208Y411480D01*
D27*
X728980Y104140D03*
D26*
X784440Y104140D01*
X785120Y104820D01*
X316500Y533000D02*
X191500Y533000D01*
X316500Y533000D02*
X330600Y533000D01*
X342900Y520700D01*
X342900Y513588D01*
X343408Y513080D01*
D27*
X736600Y513080D03*
D26*
X343408Y513080D01*
D27*
X746760Y576580D03*
D26*
X1334500Y533000D02*
X1459500Y533000D01*
X1334500Y533000D02*
X1333500Y533000D01*
X1289920Y576580D01*
X746760Y576580D01*
X1300988Y533400D02*
X1301388Y533000D01*
X1333500Y533000D01*
X240300Y177400D02*
X115300Y177400D01*
X240300Y177400D02*
X259480Y177400D01*
X266700Y170180D01*
X266700Y157988D01*
X267208Y157480D01*
D27*
X721360Y157480D03*
D26*
X267208Y157480D01*
D27*
X721360Y307340D03*
D26*
X784440Y307340D01*
X785120Y308020D01*
X785120Y333420D02*
X797140Y345440D01*
X815340Y345440D01*
X1016000Y546100D01*
X1254760Y546100D02*
X1259840Y541020D01*
X1259840Y525780D01*
X1275080Y510540D01*
X1516380Y510540D02*
X1526540Y520700D01*
X1526540Y584320D01*
X1254760Y546100D02*
X1016000Y546100D01*
X1275080Y510540D02*
X1516380Y510540D01*
X797140Y370840D02*
X785120Y358820D01*
X797140Y370840D02*
X833120Y370840D01*
X1033780Y571500D01*
X1244600Y571500D02*
X1264920Y551180D01*
X1264920Y528320D01*
X1277620Y515620D01*
X1473200Y515620D02*
X1480820Y523240D01*
X1480820Y584320D01*
X1244600Y571500D02*
X1033780Y571500D01*
X1277620Y515620D02*
X1473200Y515620D01*
X1000920Y511220D02*
X952500Y462800D01*
X1000920Y511220D02*
X1039120Y511220D01*
X982980Y76200D02*
X1016000Y43180D01*
X1130838Y43180D01*
X1202466Y114808D01*
X1236950Y114808D01*
X1249680Y127538D01*
X1249680Y134620D02*
X1231900Y152400D01*
X1249680Y134620D02*
X1249680Y127538D01*
X1039120Y155620D02*
X998900Y155620D01*
X982980Y139700D01*
X982980Y76200D01*
X1021760Y206420D02*
X1039120Y206420D01*
X955040Y139700D02*
X955040Y66040D01*
X988060Y33020D01*
X1204464Y63500D02*
X1239520Y63500D01*
X1259840Y83820D01*
X1204464Y63500D02*
X1173984Y33020D01*
X1259840Y175260D02*
X1231900Y203200D01*
X1259840Y175260D02*
X1259840Y83820D01*
X1021760Y206420D02*
X955040Y139700D01*
X988060Y33020D02*
X1173984Y33020D01*
X1039120Y181020D02*
X1006100Y181020D01*
X970280Y145200D01*
X970280Y68580D01*
X1000760Y38100D01*
X1170940Y38100D01*
X1242568Y89408D02*
X1254760Y101600D01*
X1254760Y160020D01*
X1222248Y89408D02*
X1170940Y38100D01*
X1222248Y89408D02*
X1242568Y89408D01*
X1254760Y160020D02*
X1236980Y177800D01*
X1231900Y177800D01*
X1231900Y228600D02*
X1112520Y228600D01*
D27*
X1112520Y228600D03*
D26*
X1127760Y279400D02*
X1231900Y279400D01*
D27*
X1127760Y279400D03*
D26*
X1120140Y254000D02*
X1231900Y254000D01*
D27*
X1120140Y254000D03*
D26*
X1080440Y292100D02*
X1064520Y308020D01*
X1280160Y292100D02*
X1290320Y281940D01*
X1280160Y292100D02*
X1080440Y292100D01*
X1064520Y333420D02*
X1214800Y333420D01*
X1224280Y342900D01*
X1247140Y342900D01*
X1267460Y322580D01*
X1290320Y259382D02*
X1290320Y256540D01*
X1290320Y259382D02*
X1308354Y277416D01*
X1297638Y322580D02*
X1267460Y322580D01*
X1297638Y322580D02*
X1308354Y311864D01*
X1308354Y277416D01*
D27*
X1135380Y241300D03*
D26*
X1244600Y241300D01*
X1254760Y231140D01*
X1290320Y231140D01*
X1059786Y319450D02*
X1053090Y312755D01*
X1059786Y319450D02*
X1069255Y319450D01*
X1053090Y296590D02*
X1039120Y282620D01*
X1246602Y307340D02*
X1290320Y307340D01*
X1053090Y312755D02*
X1053090Y296590D01*
X1236950Y316992D02*
X1246602Y307340D01*
X1071713Y316992D02*
X1069255Y319450D01*
X1071713Y316992D02*
X1236950Y316992D01*
X1301956Y242062D02*
X1308354Y235664D01*
X1308354Y226616D01*
X1114841Y282620D02*
X1064520Y282620D01*
X1236950Y266192D02*
X1261080Y242062D01*
X1301956Y242062D01*
X1131269Y266192D02*
X1114841Y282620D01*
X1131269Y266192D02*
X1236950Y266192D01*
X1290320Y208582D02*
X1290320Y205740D01*
X1290320Y208582D02*
X1308354Y226616D01*
M02*
