G04 EAGLE Gerber RS-274X export*
G75*
%MOMM*%
%FSLAX34Y34*%
%LPD*%
%INSoldermask Top*%
%IPPOS*%
%AMOC8*
5,1,8,0,0,1.08239X$1,22.5*%
G01*
%ADD10R,0.660400X0.762000*%
%ADD11R,0.952400X0.952400*%
%ADD12C,0.609600*%
%ADD13C,1.168400*%
%ADD14C,4.597400*%
%ADD15R,0.762000X0.660400*%
%ADD16C,2.112400*%
%ADD17C,1.272400*%
%ADD18R,1.676400X1.676400*%
%ADD19P,1.814519X8X112.500000*%
%ADD20C,1.828800*%
%ADD21C,4.168400*%
%ADD22C,1.574800*%
%ADD23C,1.930400*%
%ADD24C,1.930400*%
%ADD25C,2.692400*%


D10*
X190500Y284988D03*
X190500Y273812D03*
D11*
X1526540Y584320D03*
X1526540Y599320D03*
X1480820Y584320D03*
X1480820Y599320D03*
D12*
X1602740Y88900D02*
X1602742Y89087D01*
X1602749Y89274D01*
X1602761Y89461D01*
X1602777Y89647D01*
X1602797Y89833D01*
X1602822Y90018D01*
X1602852Y90203D01*
X1602886Y90387D01*
X1602925Y90570D01*
X1602968Y90752D01*
X1603016Y90932D01*
X1603068Y91112D01*
X1603125Y91290D01*
X1603185Y91467D01*
X1603251Y91642D01*
X1603320Y91816D01*
X1603394Y91988D01*
X1603472Y92158D01*
X1603554Y92326D01*
X1603640Y92492D01*
X1603730Y92656D01*
X1603824Y92817D01*
X1603922Y92977D01*
X1604024Y93133D01*
X1604130Y93288D01*
X1604240Y93439D01*
X1604353Y93588D01*
X1604470Y93734D01*
X1604590Y93877D01*
X1604714Y94017D01*
X1604841Y94154D01*
X1604972Y94288D01*
X1605106Y94419D01*
X1605243Y94546D01*
X1605383Y94670D01*
X1605526Y94790D01*
X1605672Y94907D01*
X1605821Y95020D01*
X1605972Y95130D01*
X1606127Y95236D01*
X1606283Y95338D01*
X1606443Y95436D01*
X1606604Y95530D01*
X1606768Y95620D01*
X1606934Y95706D01*
X1607102Y95788D01*
X1607272Y95866D01*
X1607444Y95940D01*
X1607618Y96009D01*
X1607793Y96075D01*
X1607970Y96135D01*
X1608148Y96192D01*
X1608328Y96244D01*
X1608508Y96292D01*
X1608690Y96335D01*
X1608873Y96374D01*
X1609057Y96408D01*
X1609242Y96438D01*
X1609427Y96463D01*
X1609613Y96483D01*
X1609799Y96499D01*
X1609986Y96511D01*
X1610173Y96518D01*
X1610360Y96520D01*
X1610547Y96518D01*
X1610734Y96511D01*
X1610921Y96499D01*
X1611107Y96483D01*
X1611293Y96463D01*
X1611478Y96438D01*
X1611663Y96408D01*
X1611847Y96374D01*
X1612030Y96335D01*
X1612212Y96292D01*
X1612392Y96244D01*
X1612572Y96192D01*
X1612750Y96135D01*
X1612927Y96075D01*
X1613102Y96009D01*
X1613276Y95940D01*
X1613448Y95866D01*
X1613618Y95788D01*
X1613786Y95706D01*
X1613952Y95620D01*
X1614116Y95530D01*
X1614277Y95436D01*
X1614437Y95338D01*
X1614593Y95236D01*
X1614748Y95130D01*
X1614899Y95020D01*
X1615048Y94907D01*
X1615194Y94790D01*
X1615337Y94670D01*
X1615477Y94546D01*
X1615614Y94419D01*
X1615748Y94288D01*
X1615879Y94154D01*
X1616006Y94017D01*
X1616130Y93877D01*
X1616250Y93734D01*
X1616367Y93588D01*
X1616480Y93439D01*
X1616590Y93288D01*
X1616696Y93133D01*
X1616798Y92977D01*
X1616896Y92817D01*
X1616990Y92656D01*
X1617080Y92492D01*
X1617166Y92326D01*
X1617248Y92158D01*
X1617326Y91988D01*
X1617400Y91816D01*
X1617469Y91642D01*
X1617535Y91467D01*
X1617595Y91290D01*
X1617652Y91112D01*
X1617704Y90932D01*
X1617752Y90752D01*
X1617795Y90570D01*
X1617834Y90387D01*
X1617868Y90203D01*
X1617898Y90018D01*
X1617923Y89833D01*
X1617943Y89647D01*
X1617959Y89461D01*
X1617971Y89274D01*
X1617978Y89087D01*
X1617980Y88900D01*
X1617978Y88713D01*
X1617971Y88526D01*
X1617959Y88339D01*
X1617943Y88153D01*
X1617923Y87967D01*
X1617898Y87782D01*
X1617868Y87597D01*
X1617834Y87413D01*
X1617795Y87230D01*
X1617752Y87048D01*
X1617704Y86868D01*
X1617652Y86688D01*
X1617595Y86510D01*
X1617535Y86333D01*
X1617469Y86158D01*
X1617400Y85984D01*
X1617326Y85812D01*
X1617248Y85642D01*
X1617166Y85474D01*
X1617080Y85308D01*
X1616990Y85144D01*
X1616896Y84983D01*
X1616798Y84823D01*
X1616696Y84667D01*
X1616590Y84512D01*
X1616480Y84361D01*
X1616367Y84212D01*
X1616250Y84066D01*
X1616130Y83923D01*
X1616006Y83783D01*
X1615879Y83646D01*
X1615748Y83512D01*
X1615614Y83381D01*
X1615477Y83254D01*
X1615337Y83130D01*
X1615194Y83010D01*
X1615048Y82893D01*
X1614899Y82780D01*
X1614748Y82670D01*
X1614593Y82564D01*
X1614437Y82462D01*
X1614277Y82364D01*
X1614116Y82270D01*
X1613952Y82180D01*
X1613786Y82094D01*
X1613618Y82012D01*
X1613448Y81934D01*
X1613276Y81860D01*
X1613102Y81791D01*
X1612927Y81725D01*
X1612750Y81665D01*
X1612572Y81608D01*
X1612392Y81556D01*
X1612212Y81508D01*
X1612030Y81465D01*
X1611847Y81426D01*
X1611663Y81392D01*
X1611478Y81362D01*
X1611293Y81337D01*
X1611107Y81317D01*
X1610921Y81301D01*
X1610734Y81289D01*
X1610547Y81282D01*
X1610360Y81280D01*
X1610173Y81282D01*
X1609986Y81289D01*
X1609799Y81301D01*
X1609613Y81317D01*
X1609427Y81337D01*
X1609242Y81362D01*
X1609057Y81392D01*
X1608873Y81426D01*
X1608690Y81465D01*
X1608508Y81508D01*
X1608328Y81556D01*
X1608148Y81608D01*
X1607970Y81665D01*
X1607793Y81725D01*
X1607618Y81791D01*
X1607444Y81860D01*
X1607272Y81934D01*
X1607102Y82012D01*
X1606934Y82094D01*
X1606768Y82180D01*
X1606604Y82270D01*
X1606443Y82364D01*
X1606283Y82462D01*
X1606127Y82564D01*
X1605972Y82670D01*
X1605821Y82780D01*
X1605672Y82893D01*
X1605526Y83010D01*
X1605383Y83130D01*
X1605243Y83254D01*
X1605106Y83381D01*
X1604972Y83512D01*
X1604841Y83646D01*
X1604714Y83783D01*
X1604590Y83923D01*
X1604470Y84066D01*
X1604353Y84212D01*
X1604240Y84361D01*
X1604130Y84512D01*
X1604024Y84667D01*
X1603922Y84823D01*
X1603824Y84983D01*
X1603730Y85144D01*
X1603640Y85308D01*
X1603554Y85474D01*
X1603472Y85642D01*
X1603394Y85812D01*
X1603320Y85984D01*
X1603251Y86158D01*
X1603185Y86333D01*
X1603125Y86510D01*
X1603068Y86688D01*
X1603016Y86868D01*
X1602968Y87048D01*
X1602925Y87230D01*
X1602886Y87413D01*
X1602852Y87597D01*
X1602822Y87782D01*
X1602797Y87967D01*
X1602777Y88153D01*
X1602761Y88339D01*
X1602749Y88526D01*
X1602742Y88713D01*
X1602740Y88900D01*
D13*
X1610360Y88900D03*
D12*
X33020Y88900D02*
X33022Y89087D01*
X33029Y89274D01*
X33041Y89461D01*
X33057Y89647D01*
X33077Y89833D01*
X33102Y90018D01*
X33132Y90203D01*
X33166Y90387D01*
X33205Y90570D01*
X33248Y90752D01*
X33296Y90932D01*
X33348Y91112D01*
X33405Y91290D01*
X33465Y91467D01*
X33531Y91642D01*
X33600Y91816D01*
X33674Y91988D01*
X33752Y92158D01*
X33834Y92326D01*
X33920Y92492D01*
X34010Y92656D01*
X34104Y92817D01*
X34202Y92977D01*
X34304Y93133D01*
X34410Y93288D01*
X34520Y93439D01*
X34633Y93588D01*
X34750Y93734D01*
X34870Y93877D01*
X34994Y94017D01*
X35121Y94154D01*
X35252Y94288D01*
X35386Y94419D01*
X35523Y94546D01*
X35663Y94670D01*
X35806Y94790D01*
X35952Y94907D01*
X36101Y95020D01*
X36252Y95130D01*
X36407Y95236D01*
X36563Y95338D01*
X36723Y95436D01*
X36884Y95530D01*
X37048Y95620D01*
X37214Y95706D01*
X37382Y95788D01*
X37552Y95866D01*
X37724Y95940D01*
X37898Y96009D01*
X38073Y96075D01*
X38250Y96135D01*
X38428Y96192D01*
X38608Y96244D01*
X38788Y96292D01*
X38970Y96335D01*
X39153Y96374D01*
X39337Y96408D01*
X39522Y96438D01*
X39707Y96463D01*
X39893Y96483D01*
X40079Y96499D01*
X40266Y96511D01*
X40453Y96518D01*
X40640Y96520D01*
X40827Y96518D01*
X41014Y96511D01*
X41201Y96499D01*
X41387Y96483D01*
X41573Y96463D01*
X41758Y96438D01*
X41943Y96408D01*
X42127Y96374D01*
X42310Y96335D01*
X42492Y96292D01*
X42672Y96244D01*
X42852Y96192D01*
X43030Y96135D01*
X43207Y96075D01*
X43382Y96009D01*
X43556Y95940D01*
X43728Y95866D01*
X43898Y95788D01*
X44066Y95706D01*
X44232Y95620D01*
X44396Y95530D01*
X44557Y95436D01*
X44717Y95338D01*
X44873Y95236D01*
X45028Y95130D01*
X45179Y95020D01*
X45328Y94907D01*
X45474Y94790D01*
X45617Y94670D01*
X45757Y94546D01*
X45894Y94419D01*
X46028Y94288D01*
X46159Y94154D01*
X46286Y94017D01*
X46410Y93877D01*
X46530Y93734D01*
X46647Y93588D01*
X46760Y93439D01*
X46870Y93288D01*
X46976Y93133D01*
X47078Y92977D01*
X47176Y92817D01*
X47270Y92656D01*
X47360Y92492D01*
X47446Y92326D01*
X47528Y92158D01*
X47606Y91988D01*
X47680Y91816D01*
X47749Y91642D01*
X47815Y91467D01*
X47875Y91290D01*
X47932Y91112D01*
X47984Y90932D01*
X48032Y90752D01*
X48075Y90570D01*
X48114Y90387D01*
X48148Y90203D01*
X48178Y90018D01*
X48203Y89833D01*
X48223Y89647D01*
X48239Y89461D01*
X48251Y89274D01*
X48258Y89087D01*
X48260Y88900D01*
X48258Y88713D01*
X48251Y88526D01*
X48239Y88339D01*
X48223Y88153D01*
X48203Y87967D01*
X48178Y87782D01*
X48148Y87597D01*
X48114Y87413D01*
X48075Y87230D01*
X48032Y87048D01*
X47984Y86868D01*
X47932Y86688D01*
X47875Y86510D01*
X47815Y86333D01*
X47749Y86158D01*
X47680Y85984D01*
X47606Y85812D01*
X47528Y85642D01*
X47446Y85474D01*
X47360Y85308D01*
X47270Y85144D01*
X47176Y84983D01*
X47078Y84823D01*
X46976Y84667D01*
X46870Y84512D01*
X46760Y84361D01*
X46647Y84212D01*
X46530Y84066D01*
X46410Y83923D01*
X46286Y83783D01*
X46159Y83646D01*
X46028Y83512D01*
X45894Y83381D01*
X45757Y83254D01*
X45617Y83130D01*
X45474Y83010D01*
X45328Y82893D01*
X45179Y82780D01*
X45028Y82670D01*
X44873Y82564D01*
X44717Y82462D01*
X44557Y82364D01*
X44396Y82270D01*
X44232Y82180D01*
X44066Y82094D01*
X43898Y82012D01*
X43728Y81934D01*
X43556Y81860D01*
X43382Y81791D01*
X43207Y81725D01*
X43030Y81665D01*
X42852Y81608D01*
X42672Y81556D01*
X42492Y81508D01*
X42310Y81465D01*
X42127Y81426D01*
X41943Y81392D01*
X41758Y81362D01*
X41573Y81337D01*
X41387Y81317D01*
X41201Y81301D01*
X41014Y81289D01*
X40827Y81282D01*
X40640Y81280D01*
X40453Y81282D01*
X40266Y81289D01*
X40079Y81301D01*
X39893Y81317D01*
X39707Y81337D01*
X39522Y81362D01*
X39337Y81392D01*
X39153Y81426D01*
X38970Y81465D01*
X38788Y81508D01*
X38608Y81556D01*
X38428Y81608D01*
X38250Y81665D01*
X38073Y81725D01*
X37898Y81791D01*
X37724Y81860D01*
X37552Y81934D01*
X37382Y82012D01*
X37214Y82094D01*
X37048Y82180D01*
X36884Y82270D01*
X36723Y82364D01*
X36563Y82462D01*
X36407Y82564D01*
X36252Y82670D01*
X36101Y82780D01*
X35952Y82893D01*
X35806Y83010D01*
X35663Y83130D01*
X35523Y83254D01*
X35386Y83381D01*
X35252Y83512D01*
X35121Y83646D01*
X34994Y83783D01*
X34870Y83923D01*
X34750Y84066D01*
X34633Y84212D01*
X34520Y84361D01*
X34410Y84512D01*
X34304Y84667D01*
X34202Y84823D01*
X34104Y84983D01*
X34010Y85144D01*
X33920Y85308D01*
X33834Y85474D01*
X33752Y85642D01*
X33674Y85812D01*
X33600Y85984D01*
X33531Y86158D01*
X33465Y86333D01*
X33405Y86510D01*
X33348Y86688D01*
X33296Y86868D01*
X33248Y87048D01*
X33205Y87230D01*
X33166Y87413D01*
X33132Y87597D01*
X33102Y87782D01*
X33077Y87967D01*
X33057Y88153D01*
X33041Y88339D01*
X33029Y88526D01*
X33022Y88713D01*
X33020Y88900D01*
D13*
X40640Y88900D03*
D12*
X33020Y533400D02*
X33022Y533587D01*
X33029Y533774D01*
X33041Y533961D01*
X33057Y534147D01*
X33077Y534333D01*
X33102Y534518D01*
X33132Y534703D01*
X33166Y534887D01*
X33205Y535070D01*
X33248Y535252D01*
X33296Y535432D01*
X33348Y535612D01*
X33405Y535790D01*
X33465Y535967D01*
X33531Y536142D01*
X33600Y536316D01*
X33674Y536488D01*
X33752Y536658D01*
X33834Y536826D01*
X33920Y536992D01*
X34010Y537156D01*
X34104Y537317D01*
X34202Y537477D01*
X34304Y537633D01*
X34410Y537788D01*
X34520Y537939D01*
X34633Y538088D01*
X34750Y538234D01*
X34870Y538377D01*
X34994Y538517D01*
X35121Y538654D01*
X35252Y538788D01*
X35386Y538919D01*
X35523Y539046D01*
X35663Y539170D01*
X35806Y539290D01*
X35952Y539407D01*
X36101Y539520D01*
X36252Y539630D01*
X36407Y539736D01*
X36563Y539838D01*
X36723Y539936D01*
X36884Y540030D01*
X37048Y540120D01*
X37214Y540206D01*
X37382Y540288D01*
X37552Y540366D01*
X37724Y540440D01*
X37898Y540509D01*
X38073Y540575D01*
X38250Y540635D01*
X38428Y540692D01*
X38608Y540744D01*
X38788Y540792D01*
X38970Y540835D01*
X39153Y540874D01*
X39337Y540908D01*
X39522Y540938D01*
X39707Y540963D01*
X39893Y540983D01*
X40079Y540999D01*
X40266Y541011D01*
X40453Y541018D01*
X40640Y541020D01*
X40827Y541018D01*
X41014Y541011D01*
X41201Y540999D01*
X41387Y540983D01*
X41573Y540963D01*
X41758Y540938D01*
X41943Y540908D01*
X42127Y540874D01*
X42310Y540835D01*
X42492Y540792D01*
X42672Y540744D01*
X42852Y540692D01*
X43030Y540635D01*
X43207Y540575D01*
X43382Y540509D01*
X43556Y540440D01*
X43728Y540366D01*
X43898Y540288D01*
X44066Y540206D01*
X44232Y540120D01*
X44396Y540030D01*
X44557Y539936D01*
X44717Y539838D01*
X44873Y539736D01*
X45028Y539630D01*
X45179Y539520D01*
X45328Y539407D01*
X45474Y539290D01*
X45617Y539170D01*
X45757Y539046D01*
X45894Y538919D01*
X46028Y538788D01*
X46159Y538654D01*
X46286Y538517D01*
X46410Y538377D01*
X46530Y538234D01*
X46647Y538088D01*
X46760Y537939D01*
X46870Y537788D01*
X46976Y537633D01*
X47078Y537477D01*
X47176Y537317D01*
X47270Y537156D01*
X47360Y536992D01*
X47446Y536826D01*
X47528Y536658D01*
X47606Y536488D01*
X47680Y536316D01*
X47749Y536142D01*
X47815Y535967D01*
X47875Y535790D01*
X47932Y535612D01*
X47984Y535432D01*
X48032Y535252D01*
X48075Y535070D01*
X48114Y534887D01*
X48148Y534703D01*
X48178Y534518D01*
X48203Y534333D01*
X48223Y534147D01*
X48239Y533961D01*
X48251Y533774D01*
X48258Y533587D01*
X48260Y533400D01*
X48258Y533213D01*
X48251Y533026D01*
X48239Y532839D01*
X48223Y532653D01*
X48203Y532467D01*
X48178Y532282D01*
X48148Y532097D01*
X48114Y531913D01*
X48075Y531730D01*
X48032Y531548D01*
X47984Y531368D01*
X47932Y531188D01*
X47875Y531010D01*
X47815Y530833D01*
X47749Y530658D01*
X47680Y530484D01*
X47606Y530312D01*
X47528Y530142D01*
X47446Y529974D01*
X47360Y529808D01*
X47270Y529644D01*
X47176Y529483D01*
X47078Y529323D01*
X46976Y529167D01*
X46870Y529012D01*
X46760Y528861D01*
X46647Y528712D01*
X46530Y528566D01*
X46410Y528423D01*
X46286Y528283D01*
X46159Y528146D01*
X46028Y528012D01*
X45894Y527881D01*
X45757Y527754D01*
X45617Y527630D01*
X45474Y527510D01*
X45328Y527393D01*
X45179Y527280D01*
X45028Y527170D01*
X44873Y527064D01*
X44717Y526962D01*
X44557Y526864D01*
X44396Y526770D01*
X44232Y526680D01*
X44066Y526594D01*
X43898Y526512D01*
X43728Y526434D01*
X43556Y526360D01*
X43382Y526291D01*
X43207Y526225D01*
X43030Y526165D01*
X42852Y526108D01*
X42672Y526056D01*
X42492Y526008D01*
X42310Y525965D01*
X42127Y525926D01*
X41943Y525892D01*
X41758Y525862D01*
X41573Y525837D01*
X41387Y525817D01*
X41201Y525801D01*
X41014Y525789D01*
X40827Y525782D01*
X40640Y525780D01*
X40453Y525782D01*
X40266Y525789D01*
X40079Y525801D01*
X39893Y525817D01*
X39707Y525837D01*
X39522Y525862D01*
X39337Y525892D01*
X39153Y525926D01*
X38970Y525965D01*
X38788Y526008D01*
X38608Y526056D01*
X38428Y526108D01*
X38250Y526165D01*
X38073Y526225D01*
X37898Y526291D01*
X37724Y526360D01*
X37552Y526434D01*
X37382Y526512D01*
X37214Y526594D01*
X37048Y526680D01*
X36884Y526770D01*
X36723Y526864D01*
X36563Y526962D01*
X36407Y527064D01*
X36252Y527170D01*
X36101Y527280D01*
X35952Y527393D01*
X35806Y527510D01*
X35663Y527630D01*
X35523Y527754D01*
X35386Y527881D01*
X35252Y528012D01*
X35121Y528146D01*
X34994Y528283D01*
X34870Y528423D01*
X34750Y528566D01*
X34633Y528712D01*
X34520Y528861D01*
X34410Y529012D01*
X34304Y529167D01*
X34202Y529323D01*
X34104Y529483D01*
X34010Y529644D01*
X33920Y529808D01*
X33834Y529974D01*
X33752Y530142D01*
X33674Y530312D01*
X33600Y530484D01*
X33531Y530658D01*
X33465Y530833D01*
X33405Y531010D01*
X33348Y531188D01*
X33296Y531368D01*
X33248Y531548D01*
X33205Y531730D01*
X33166Y531913D01*
X33132Y532097D01*
X33102Y532282D01*
X33077Y532467D01*
X33057Y532653D01*
X33041Y532839D01*
X33029Y533026D01*
X33022Y533213D01*
X33020Y533400D01*
D13*
X40640Y533400D03*
D12*
X1602740Y88900D02*
X1602742Y89087D01*
X1602749Y89274D01*
X1602761Y89461D01*
X1602777Y89647D01*
X1602797Y89833D01*
X1602822Y90018D01*
X1602852Y90203D01*
X1602886Y90387D01*
X1602925Y90570D01*
X1602968Y90752D01*
X1603016Y90932D01*
X1603068Y91112D01*
X1603125Y91290D01*
X1603185Y91467D01*
X1603251Y91642D01*
X1603320Y91816D01*
X1603394Y91988D01*
X1603472Y92158D01*
X1603554Y92326D01*
X1603640Y92492D01*
X1603730Y92656D01*
X1603824Y92817D01*
X1603922Y92977D01*
X1604024Y93133D01*
X1604130Y93288D01*
X1604240Y93439D01*
X1604353Y93588D01*
X1604470Y93734D01*
X1604590Y93877D01*
X1604714Y94017D01*
X1604841Y94154D01*
X1604972Y94288D01*
X1605106Y94419D01*
X1605243Y94546D01*
X1605383Y94670D01*
X1605526Y94790D01*
X1605672Y94907D01*
X1605821Y95020D01*
X1605972Y95130D01*
X1606127Y95236D01*
X1606283Y95338D01*
X1606443Y95436D01*
X1606604Y95530D01*
X1606768Y95620D01*
X1606934Y95706D01*
X1607102Y95788D01*
X1607272Y95866D01*
X1607444Y95940D01*
X1607618Y96009D01*
X1607793Y96075D01*
X1607970Y96135D01*
X1608148Y96192D01*
X1608328Y96244D01*
X1608508Y96292D01*
X1608690Y96335D01*
X1608873Y96374D01*
X1609057Y96408D01*
X1609242Y96438D01*
X1609427Y96463D01*
X1609613Y96483D01*
X1609799Y96499D01*
X1609986Y96511D01*
X1610173Y96518D01*
X1610360Y96520D01*
X1610547Y96518D01*
X1610734Y96511D01*
X1610921Y96499D01*
X1611107Y96483D01*
X1611293Y96463D01*
X1611478Y96438D01*
X1611663Y96408D01*
X1611847Y96374D01*
X1612030Y96335D01*
X1612212Y96292D01*
X1612392Y96244D01*
X1612572Y96192D01*
X1612750Y96135D01*
X1612927Y96075D01*
X1613102Y96009D01*
X1613276Y95940D01*
X1613448Y95866D01*
X1613618Y95788D01*
X1613786Y95706D01*
X1613952Y95620D01*
X1614116Y95530D01*
X1614277Y95436D01*
X1614437Y95338D01*
X1614593Y95236D01*
X1614748Y95130D01*
X1614899Y95020D01*
X1615048Y94907D01*
X1615194Y94790D01*
X1615337Y94670D01*
X1615477Y94546D01*
X1615614Y94419D01*
X1615748Y94288D01*
X1615879Y94154D01*
X1616006Y94017D01*
X1616130Y93877D01*
X1616250Y93734D01*
X1616367Y93588D01*
X1616480Y93439D01*
X1616590Y93288D01*
X1616696Y93133D01*
X1616798Y92977D01*
X1616896Y92817D01*
X1616990Y92656D01*
X1617080Y92492D01*
X1617166Y92326D01*
X1617248Y92158D01*
X1617326Y91988D01*
X1617400Y91816D01*
X1617469Y91642D01*
X1617535Y91467D01*
X1617595Y91290D01*
X1617652Y91112D01*
X1617704Y90932D01*
X1617752Y90752D01*
X1617795Y90570D01*
X1617834Y90387D01*
X1617868Y90203D01*
X1617898Y90018D01*
X1617923Y89833D01*
X1617943Y89647D01*
X1617959Y89461D01*
X1617971Y89274D01*
X1617978Y89087D01*
X1617980Y88900D01*
X1617978Y88713D01*
X1617971Y88526D01*
X1617959Y88339D01*
X1617943Y88153D01*
X1617923Y87967D01*
X1617898Y87782D01*
X1617868Y87597D01*
X1617834Y87413D01*
X1617795Y87230D01*
X1617752Y87048D01*
X1617704Y86868D01*
X1617652Y86688D01*
X1617595Y86510D01*
X1617535Y86333D01*
X1617469Y86158D01*
X1617400Y85984D01*
X1617326Y85812D01*
X1617248Y85642D01*
X1617166Y85474D01*
X1617080Y85308D01*
X1616990Y85144D01*
X1616896Y84983D01*
X1616798Y84823D01*
X1616696Y84667D01*
X1616590Y84512D01*
X1616480Y84361D01*
X1616367Y84212D01*
X1616250Y84066D01*
X1616130Y83923D01*
X1616006Y83783D01*
X1615879Y83646D01*
X1615748Y83512D01*
X1615614Y83381D01*
X1615477Y83254D01*
X1615337Y83130D01*
X1615194Y83010D01*
X1615048Y82893D01*
X1614899Y82780D01*
X1614748Y82670D01*
X1614593Y82564D01*
X1614437Y82462D01*
X1614277Y82364D01*
X1614116Y82270D01*
X1613952Y82180D01*
X1613786Y82094D01*
X1613618Y82012D01*
X1613448Y81934D01*
X1613276Y81860D01*
X1613102Y81791D01*
X1612927Y81725D01*
X1612750Y81665D01*
X1612572Y81608D01*
X1612392Y81556D01*
X1612212Y81508D01*
X1612030Y81465D01*
X1611847Y81426D01*
X1611663Y81392D01*
X1611478Y81362D01*
X1611293Y81337D01*
X1611107Y81317D01*
X1610921Y81301D01*
X1610734Y81289D01*
X1610547Y81282D01*
X1610360Y81280D01*
X1610173Y81282D01*
X1609986Y81289D01*
X1609799Y81301D01*
X1609613Y81317D01*
X1609427Y81337D01*
X1609242Y81362D01*
X1609057Y81392D01*
X1608873Y81426D01*
X1608690Y81465D01*
X1608508Y81508D01*
X1608328Y81556D01*
X1608148Y81608D01*
X1607970Y81665D01*
X1607793Y81725D01*
X1607618Y81791D01*
X1607444Y81860D01*
X1607272Y81934D01*
X1607102Y82012D01*
X1606934Y82094D01*
X1606768Y82180D01*
X1606604Y82270D01*
X1606443Y82364D01*
X1606283Y82462D01*
X1606127Y82564D01*
X1605972Y82670D01*
X1605821Y82780D01*
X1605672Y82893D01*
X1605526Y83010D01*
X1605383Y83130D01*
X1605243Y83254D01*
X1605106Y83381D01*
X1604972Y83512D01*
X1604841Y83646D01*
X1604714Y83783D01*
X1604590Y83923D01*
X1604470Y84066D01*
X1604353Y84212D01*
X1604240Y84361D01*
X1604130Y84512D01*
X1604024Y84667D01*
X1603922Y84823D01*
X1603824Y84983D01*
X1603730Y85144D01*
X1603640Y85308D01*
X1603554Y85474D01*
X1603472Y85642D01*
X1603394Y85812D01*
X1603320Y85984D01*
X1603251Y86158D01*
X1603185Y86333D01*
X1603125Y86510D01*
X1603068Y86688D01*
X1603016Y86868D01*
X1602968Y87048D01*
X1602925Y87230D01*
X1602886Y87413D01*
X1602852Y87597D01*
X1602822Y87782D01*
X1602797Y87967D01*
X1602777Y88153D01*
X1602761Y88339D01*
X1602749Y88526D01*
X1602742Y88713D01*
X1602740Y88900D01*
D13*
X1610360Y88900D03*
D12*
X33020Y88900D02*
X33022Y89087D01*
X33029Y89274D01*
X33041Y89461D01*
X33057Y89647D01*
X33077Y89833D01*
X33102Y90018D01*
X33132Y90203D01*
X33166Y90387D01*
X33205Y90570D01*
X33248Y90752D01*
X33296Y90932D01*
X33348Y91112D01*
X33405Y91290D01*
X33465Y91467D01*
X33531Y91642D01*
X33600Y91816D01*
X33674Y91988D01*
X33752Y92158D01*
X33834Y92326D01*
X33920Y92492D01*
X34010Y92656D01*
X34104Y92817D01*
X34202Y92977D01*
X34304Y93133D01*
X34410Y93288D01*
X34520Y93439D01*
X34633Y93588D01*
X34750Y93734D01*
X34870Y93877D01*
X34994Y94017D01*
X35121Y94154D01*
X35252Y94288D01*
X35386Y94419D01*
X35523Y94546D01*
X35663Y94670D01*
X35806Y94790D01*
X35952Y94907D01*
X36101Y95020D01*
X36252Y95130D01*
X36407Y95236D01*
X36563Y95338D01*
X36723Y95436D01*
X36884Y95530D01*
X37048Y95620D01*
X37214Y95706D01*
X37382Y95788D01*
X37552Y95866D01*
X37724Y95940D01*
X37898Y96009D01*
X38073Y96075D01*
X38250Y96135D01*
X38428Y96192D01*
X38608Y96244D01*
X38788Y96292D01*
X38970Y96335D01*
X39153Y96374D01*
X39337Y96408D01*
X39522Y96438D01*
X39707Y96463D01*
X39893Y96483D01*
X40079Y96499D01*
X40266Y96511D01*
X40453Y96518D01*
X40640Y96520D01*
X40827Y96518D01*
X41014Y96511D01*
X41201Y96499D01*
X41387Y96483D01*
X41573Y96463D01*
X41758Y96438D01*
X41943Y96408D01*
X42127Y96374D01*
X42310Y96335D01*
X42492Y96292D01*
X42672Y96244D01*
X42852Y96192D01*
X43030Y96135D01*
X43207Y96075D01*
X43382Y96009D01*
X43556Y95940D01*
X43728Y95866D01*
X43898Y95788D01*
X44066Y95706D01*
X44232Y95620D01*
X44396Y95530D01*
X44557Y95436D01*
X44717Y95338D01*
X44873Y95236D01*
X45028Y95130D01*
X45179Y95020D01*
X45328Y94907D01*
X45474Y94790D01*
X45617Y94670D01*
X45757Y94546D01*
X45894Y94419D01*
X46028Y94288D01*
X46159Y94154D01*
X46286Y94017D01*
X46410Y93877D01*
X46530Y93734D01*
X46647Y93588D01*
X46760Y93439D01*
X46870Y93288D01*
X46976Y93133D01*
X47078Y92977D01*
X47176Y92817D01*
X47270Y92656D01*
X47360Y92492D01*
X47446Y92326D01*
X47528Y92158D01*
X47606Y91988D01*
X47680Y91816D01*
X47749Y91642D01*
X47815Y91467D01*
X47875Y91290D01*
X47932Y91112D01*
X47984Y90932D01*
X48032Y90752D01*
X48075Y90570D01*
X48114Y90387D01*
X48148Y90203D01*
X48178Y90018D01*
X48203Y89833D01*
X48223Y89647D01*
X48239Y89461D01*
X48251Y89274D01*
X48258Y89087D01*
X48260Y88900D01*
X48258Y88713D01*
X48251Y88526D01*
X48239Y88339D01*
X48223Y88153D01*
X48203Y87967D01*
X48178Y87782D01*
X48148Y87597D01*
X48114Y87413D01*
X48075Y87230D01*
X48032Y87048D01*
X47984Y86868D01*
X47932Y86688D01*
X47875Y86510D01*
X47815Y86333D01*
X47749Y86158D01*
X47680Y85984D01*
X47606Y85812D01*
X47528Y85642D01*
X47446Y85474D01*
X47360Y85308D01*
X47270Y85144D01*
X47176Y84983D01*
X47078Y84823D01*
X46976Y84667D01*
X46870Y84512D01*
X46760Y84361D01*
X46647Y84212D01*
X46530Y84066D01*
X46410Y83923D01*
X46286Y83783D01*
X46159Y83646D01*
X46028Y83512D01*
X45894Y83381D01*
X45757Y83254D01*
X45617Y83130D01*
X45474Y83010D01*
X45328Y82893D01*
X45179Y82780D01*
X45028Y82670D01*
X44873Y82564D01*
X44717Y82462D01*
X44557Y82364D01*
X44396Y82270D01*
X44232Y82180D01*
X44066Y82094D01*
X43898Y82012D01*
X43728Y81934D01*
X43556Y81860D01*
X43382Y81791D01*
X43207Y81725D01*
X43030Y81665D01*
X42852Y81608D01*
X42672Y81556D01*
X42492Y81508D01*
X42310Y81465D01*
X42127Y81426D01*
X41943Y81392D01*
X41758Y81362D01*
X41573Y81337D01*
X41387Y81317D01*
X41201Y81301D01*
X41014Y81289D01*
X40827Y81282D01*
X40640Y81280D01*
X40453Y81282D01*
X40266Y81289D01*
X40079Y81301D01*
X39893Y81317D01*
X39707Y81337D01*
X39522Y81362D01*
X39337Y81392D01*
X39153Y81426D01*
X38970Y81465D01*
X38788Y81508D01*
X38608Y81556D01*
X38428Y81608D01*
X38250Y81665D01*
X38073Y81725D01*
X37898Y81791D01*
X37724Y81860D01*
X37552Y81934D01*
X37382Y82012D01*
X37214Y82094D01*
X37048Y82180D01*
X36884Y82270D01*
X36723Y82364D01*
X36563Y82462D01*
X36407Y82564D01*
X36252Y82670D01*
X36101Y82780D01*
X35952Y82893D01*
X35806Y83010D01*
X35663Y83130D01*
X35523Y83254D01*
X35386Y83381D01*
X35252Y83512D01*
X35121Y83646D01*
X34994Y83783D01*
X34870Y83923D01*
X34750Y84066D01*
X34633Y84212D01*
X34520Y84361D01*
X34410Y84512D01*
X34304Y84667D01*
X34202Y84823D01*
X34104Y84983D01*
X34010Y85144D01*
X33920Y85308D01*
X33834Y85474D01*
X33752Y85642D01*
X33674Y85812D01*
X33600Y85984D01*
X33531Y86158D01*
X33465Y86333D01*
X33405Y86510D01*
X33348Y86688D01*
X33296Y86868D01*
X33248Y87048D01*
X33205Y87230D01*
X33166Y87413D01*
X33132Y87597D01*
X33102Y87782D01*
X33077Y87967D01*
X33057Y88153D01*
X33041Y88339D01*
X33029Y88526D01*
X33022Y88713D01*
X33020Y88900D01*
D13*
X40640Y88900D03*
D12*
X33020Y533400D02*
X33022Y533587D01*
X33029Y533774D01*
X33041Y533961D01*
X33057Y534147D01*
X33077Y534333D01*
X33102Y534518D01*
X33132Y534703D01*
X33166Y534887D01*
X33205Y535070D01*
X33248Y535252D01*
X33296Y535432D01*
X33348Y535612D01*
X33405Y535790D01*
X33465Y535967D01*
X33531Y536142D01*
X33600Y536316D01*
X33674Y536488D01*
X33752Y536658D01*
X33834Y536826D01*
X33920Y536992D01*
X34010Y537156D01*
X34104Y537317D01*
X34202Y537477D01*
X34304Y537633D01*
X34410Y537788D01*
X34520Y537939D01*
X34633Y538088D01*
X34750Y538234D01*
X34870Y538377D01*
X34994Y538517D01*
X35121Y538654D01*
X35252Y538788D01*
X35386Y538919D01*
X35523Y539046D01*
X35663Y539170D01*
X35806Y539290D01*
X35952Y539407D01*
X36101Y539520D01*
X36252Y539630D01*
X36407Y539736D01*
X36563Y539838D01*
X36723Y539936D01*
X36884Y540030D01*
X37048Y540120D01*
X37214Y540206D01*
X37382Y540288D01*
X37552Y540366D01*
X37724Y540440D01*
X37898Y540509D01*
X38073Y540575D01*
X38250Y540635D01*
X38428Y540692D01*
X38608Y540744D01*
X38788Y540792D01*
X38970Y540835D01*
X39153Y540874D01*
X39337Y540908D01*
X39522Y540938D01*
X39707Y540963D01*
X39893Y540983D01*
X40079Y540999D01*
X40266Y541011D01*
X40453Y541018D01*
X40640Y541020D01*
X40827Y541018D01*
X41014Y541011D01*
X41201Y540999D01*
X41387Y540983D01*
X41573Y540963D01*
X41758Y540938D01*
X41943Y540908D01*
X42127Y540874D01*
X42310Y540835D01*
X42492Y540792D01*
X42672Y540744D01*
X42852Y540692D01*
X43030Y540635D01*
X43207Y540575D01*
X43382Y540509D01*
X43556Y540440D01*
X43728Y540366D01*
X43898Y540288D01*
X44066Y540206D01*
X44232Y540120D01*
X44396Y540030D01*
X44557Y539936D01*
X44717Y539838D01*
X44873Y539736D01*
X45028Y539630D01*
X45179Y539520D01*
X45328Y539407D01*
X45474Y539290D01*
X45617Y539170D01*
X45757Y539046D01*
X45894Y538919D01*
X46028Y538788D01*
X46159Y538654D01*
X46286Y538517D01*
X46410Y538377D01*
X46530Y538234D01*
X46647Y538088D01*
X46760Y537939D01*
X46870Y537788D01*
X46976Y537633D01*
X47078Y537477D01*
X47176Y537317D01*
X47270Y537156D01*
X47360Y536992D01*
X47446Y536826D01*
X47528Y536658D01*
X47606Y536488D01*
X47680Y536316D01*
X47749Y536142D01*
X47815Y535967D01*
X47875Y535790D01*
X47932Y535612D01*
X47984Y535432D01*
X48032Y535252D01*
X48075Y535070D01*
X48114Y534887D01*
X48148Y534703D01*
X48178Y534518D01*
X48203Y534333D01*
X48223Y534147D01*
X48239Y533961D01*
X48251Y533774D01*
X48258Y533587D01*
X48260Y533400D01*
X48258Y533213D01*
X48251Y533026D01*
X48239Y532839D01*
X48223Y532653D01*
X48203Y532467D01*
X48178Y532282D01*
X48148Y532097D01*
X48114Y531913D01*
X48075Y531730D01*
X48032Y531548D01*
X47984Y531368D01*
X47932Y531188D01*
X47875Y531010D01*
X47815Y530833D01*
X47749Y530658D01*
X47680Y530484D01*
X47606Y530312D01*
X47528Y530142D01*
X47446Y529974D01*
X47360Y529808D01*
X47270Y529644D01*
X47176Y529483D01*
X47078Y529323D01*
X46976Y529167D01*
X46870Y529012D01*
X46760Y528861D01*
X46647Y528712D01*
X46530Y528566D01*
X46410Y528423D01*
X46286Y528283D01*
X46159Y528146D01*
X46028Y528012D01*
X45894Y527881D01*
X45757Y527754D01*
X45617Y527630D01*
X45474Y527510D01*
X45328Y527393D01*
X45179Y527280D01*
X45028Y527170D01*
X44873Y527064D01*
X44717Y526962D01*
X44557Y526864D01*
X44396Y526770D01*
X44232Y526680D01*
X44066Y526594D01*
X43898Y526512D01*
X43728Y526434D01*
X43556Y526360D01*
X43382Y526291D01*
X43207Y526225D01*
X43030Y526165D01*
X42852Y526108D01*
X42672Y526056D01*
X42492Y526008D01*
X42310Y525965D01*
X42127Y525926D01*
X41943Y525892D01*
X41758Y525862D01*
X41573Y525837D01*
X41387Y525817D01*
X41201Y525801D01*
X41014Y525789D01*
X40827Y525782D01*
X40640Y525780D01*
X40453Y525782D01*
X40266Y525789D01*
X40079Y525801D01*
X39893Y525817D01*
X39707Y525837D01*
X39522Y525862D01*
X39337Y525892D01*
X39153Y525926D01*
X38970Y525965D01*
X38788Y526008D01*
X38608Y526056D01*
X38428Y526108D01*
X38250Y526165D01*
X38073Y526225D01*
X37898Y526291D01*
X37724Y526360D01*
X37552Y526434D01*
X37382Y526512D01*
X37214Y526594D01*
X37048Y526680D01*
X36884Y526770D01*
X36723Y526864D01*
X36563Y526962D01*
X36407Y527064D01*
X36252Y527170D01*
X36101Y527280D01*
X35952Y527393D01*
X35806Y527510D01*
X35663Y527630D01*
X35523Y527754D01*
X35386Y527881D01*
X35252Y528012D01*
X35121Y528146D01*
X34994Y528283D01*
X34870Y528423D01*
X34750Y528566D01*
X34633Y528712D01*
X34520Y528861D01*
X34410Y529012D01*
X34304Y529167D01*
X34202Y529323D01*
X34104Y529483D01*
X34010Y529644D01*
X33920Y529808D01*
X33834Y529974D01*
X33752Y530142D01*
X33674Y530312D01*
X33600Y530484D01*
X33531Y530658D01*
X33465Y530833D01*
X33405Y531010D01*
X33348Y531188D01*
X33296Y531368D01*
X33248Y531548D01*
X33205Y531730D01*
X33166Y531913D01*
X33132Y532097D01*
X33102Y532282D01*
X33077Y532467D01*
X33057Y532653D01*
X33041Y532839D01*
X33029Y533026D01*
X33022Y533213D01*
X33020Y533400D01*
D13*
X40640Y533400D03*
D14*
X1612900Y596900D03*
X38100Y596900D03*
X1612900Y38100D03*
X38100Y38100D03*
D10*
X83820Y604012D03*
X83820Y615188D03*
X368300Y284988D03*
X368300Y273812D03*
X266700Y411988D03*
X266700Y400812D03*
X342900Y513588D03*
X342900Y502412D03*
D15*
X1300988Y533400D03*
X1289812Y533400D03*
D10*
X266700Y157988D03*
X266700Y146812D03*
D16*
X164100Y304400D03*
X164100Y254400D03*
X39100Y254400D03*
X39100Y304400D03*
X341900Y304400D03*
X341900Y254400D03*
X216900Y254400D03*
X216900Y304400D03*
X240300Y431400D03*
X240300Y381400D03*
X115300Y381400D03*
X115300Y431400D03*
X191500Y533000D03*
X191500Y483000D03*
X316500Y483000D03*
X316500Y533000D03*
X1334500Y533000D03*
X1334500Y483000D03*
X1459500Y483000D03*
X1459500Y533000D03*
X240300Y177400D03*
X240300Y127400D03*
X115300Y127400D03*
X115300Y177400D03*
D17*
X952500Y527800D03*
X952500Y462800D03*
D18*
X1064520Y79420D03*
D19*
X1039120Y79420D03*
X1064520Y104820D03*
X1039120Y104820D03*
X1064520Y130220D03*
X1039120Y130220D03*
X1064520Y155620D03*
X1039120Y155620D03*
X1064520Y181020D03*
X1039120Y181020D03*
X1064520Y206420D03*
X1039120Y206420D03*
X1064520Y231820D03*
X1039120Y231820D03*
X1064520Y257220D03*
X1039120Y257220D03*
X1064520Y282620D03*
X1039120Y282620D03*
X1064520Y308020D03*
X1039120Y308020D03*
X1064520Y333420D03*
X1039120Y333420D03*
X1064520Y358820D03*
X1039120Y358820D03*
X1064520Y384220D03*
X1039120Y384220D03*
X1064520Y409620D03*
X1039120Y409620D03*
X1064520Y435020D03*
X1039120Y435020D03*
X1064520Y460420D03*
X1039120Y460420D03*
X1064520Y485820D03*
X1039120Y485820D03*
X1064520Y511220D03*
X1039120Y511220D03*
D18*
X810520Y79420D03*
D19*
X785120Y79420D03*
X810520Y104820D03*
X785120Y104820D03*
X810520Y130220D03*
X785120Y130220D03*
X810520Y155620D03*
X785120Y155620D03*
X810520Y181020D03*
X785120Y181020D03*
X810520Y206420D03*
X785120Y206420D03*
X810520Y231820D03*
X785120Y231820D03*
X810520Y257220D03*
X785120Y257220D03*
X810520Y282620D03*
X785120Y282620D03*
X810520Y308020D03*
X785120Y308020D03*
X810520Y333420D03*
X785120Y333420D03*
X810520Y358820D03*
X785120Y358820D03*
X810520Y384220D03*
X785120Y384220D03*
X810520Y409620D03*
X785120Y409620D03*
X810520Y435020D03*
X785120Y435020D03*
X810520Y460420D03*
X785120Y460420D03*
X810520Y485820D03*
X785120Y485820D03*
X810520Y511220D03*
X785120Y511220D03*
D20*
X1231900Y76200D03*
X1231900Y101600D03*
X1231900Y127000D03*
X1231900Y152400D03*
X1231900Y177800D03*
X1231900Y203200D03*
X1231900Y228600D03*
X1231900Y254000D03*
X1231900Y279400D03*
X1231900Y304800D03*
X1231900Y330200D03*
X1231900Y355600D03*
X1231900Y381000D03*
X1231900Y406400D03*
X1231900Y431800D03*
X1231900Y457200D03*
X1231900Y482600D03*
X1231900Y508000D03*
X1231900Y533400D03*
X1231900Y558800D03*
D21*
X1231900Y31750D03*
X1231900Y603250D03*
X400050Y31750D03*
X400050Y603250D03*
D22*
X1283208Y205740D02*
X1297432Y205740D01*
X1297432Y231140D02*
X1283208Y231140D01*
X1283208Y256540D02*
X1297432Y256540D01*
X1297432Y281940D02*
X1283208Y281940D01*
X1283208Y307340D02*
X1297432Y307340D01*
D23*
X1580430Y297180D02*
X1580430Y279400D01*
X1580430Y233680D02*
X1580430Y215900D01*
X1535430Y279400D02*
X1535430Y297180D01*
X1535430Y233680D02*
X1535430Y215900D01*
D24*
X1353820Y281940D03*
X1353820Y256540D03*
X1353820Y231140D03*
D25*
X1522095Y332740D03*
X1388745Y332740D03*
X1388745Y180340D03*
X1522095Y180340D03*
D24*
X1480820Y358140D03*
X1455420Y358140D03*
X1430020Y358140D03*
M02*
