M48
;GenerationSoftware,Autodesk,EAGLE,9.6.0*%
;CreationDate,2023-12-13T02:51:31Z*%
FMAT,2
ICI,OFF
METRIC,TZ,000.000
T11C0.305
T10C0.350
T9C0.800
T8C0.889
T7C1.000
T6C1.016
T5C1.100
T4C1.397
T3C1.400
T2C3.000
T1C3.175
%
G90
M71
T1
X161290Y59690
X3810Y59690
X161290Y3810
X3810Y3810
T2
X123190Y60325
X123190Y3175
X40005Y60325
X40005Y3175
T3
X31650Y53300
X11530Y17740
X11530Y12740
X24030Y12740
X24030Y17740
X145950Y53300
X145950Y48300
X133450Y48300
X133450Y53300
X21690Y30440
X31650Y48300
X19150Y48300
X19150Y53300
X11530Y43140
X11530Y38140
X24030Y38140
X24030Y43140
X16410Y30440
X16410Y25440
X3910Y25440
X3910Y30440
X34190Y30440
X34190Y25440
X21690Y25440
T4
X152210Y18034
X152210Y33274
X138875Y33274
X138875Y18034
T5
X158043Y28829
X158043Y22479
X153543Y28829
X153543Y22479
T6
X129032Y20574
X129032Y23114
X129032Y25654
X129032Y28194
X129032Y30734
T7
X123190Y20320
X123190Y22860
X123190Y25400
X123190Y27940
X123190Y30480
X123190Y33020
X123190Y35560
X123190Y38100
X123190Y40640
X123190Y45720
X123190Y48260
X123190Y50800
X123190Y53340
X123190Y10160
X123190Y7620
X123190Y55880
X123190Y43180
X123190Y12700
X123190Y15240
X123190Y17780
T8
X106452Y25722
X103912Y25722
X106452Y28262
X103912Y28262
X106452Y30802
X103912Y30802
X106452Y33342
X103912Y33342
X106452Y35882
X103912Y35882
X106452Y38422
X103912Y38422
X106452Y40962
X103912Y40962
X106452Y43502
X103912Y43502
X106452Y46042
X103912Y46042
X106452Y48582
X103912Y48582
X106452Y51122
X103912Y51122
X81052Y7942
X78512Y7942
X81052Y10482
X78512Y10482
X81052Y13022
X78512Y13022
X81052Y15562
X78512Y15562
X81052Y18102
X78512Y18102
X81052Y20642
X78512Y20642
X81052Y23182
X78512Y23182
X81052Y25722
X78512Y25722
X81052Y28262
X78512Y28262
X81052Y30802
X78512Y30802
X81052Y33342
X78512Y33342
X81052Y35882
X78512Y35882
X81052Y38422
X78512Y38422
X81052Y40962
X78512Y40962
X81052Y43502
X78512Y43502
X81052Y46042
X78512Y46042
X81052Y48582
X78512Y48582
X81052Y51122
X78512Y51122
X106452Y7942
X103912Y7942
X106452Y10482
X103912Y10482
X106452Y13022
X103912Y13022
X106452Y15562
X103912Y15562
X106452Y18102
X103912Y18102
X135382Y28194
X135382Y25654
X135382Y23114
X106452Y20642
X103912Y20642
X106452Y23182
X103912Y23182
X148082Y35814
X145542Y35814
X143002Y35814
T9
X95250Y46280
X95250Y52780
T10
X8382Y59436
X152654Y60960
T11
X148082Y60960
X113538Y24130
X112014Y25400
X112776Y27940
X111252Y22860
X72136Y30734
X72136Y15748
X74676Y57658
X73660Y51308
X72898Y10414
X72898Y41148
X71374Y12954
X71374Y25400
X128016Y53340
X26670Y13716
X36830Y26416
X19050Y26416
X26670Y39116
X34290Y49276
M30